{
	"accessors":[{
		"bufferView":0,
		"type":"SCALAR",
		"componentType":5123,
		"count":960,
		"byteOffset":0,
		"min":[0],
		"max":[230]
	},
	{
		"bufferView":1,
		"type":"VEC3",
		"componentType":5126,
		"count":231,
		"byteOffset":0,
		"min":[-0.30315902829170229,
		-0.018612440675497056,
		-0.008912281133234501],
		"max":[0.27045491337776186,
		0.011799264699220658,
		0.005828523542732]
	},
	{
		"bufferView":1,
		"type":"VEC3",
		"componentType":5126,
		"count":231,
		"byteOffset":12,
		"min":[-1.0,
		-1.0,
		-0.9996303915977478],
		"max":[1.0,
		1.0,
		0.9996303915977478]
	},
	{
		"bufferView":1,
		"type":"VEC2",
		"componentType":5126,
		"count":231,
		"byteOffset":24,
		"min":[0.000030517578125,
		0.000030517578125],
		"max":[1.0,
		1.0]
	},
	{
		"bufferView":2,
		"type":"SCALAR",
		"componentType":5123,
		"count":36,
		"byteOffset":0,
		"min":[0],
		"max":[23]
	},
	{
		"bufferView":3,
		"type":"VEC3",
		"componentType":5126,
		"count":24,
		"byteOffset":0,
		"min":[-0.30134317278862,
		-0.008082559332251549,
		-0.23286855220794679],
		"max":[0.2686222195625305,
		0.009932996705174446,
		0.22814078629016877]
	},
	{
		"bufferView":3,
		"type":"VEC3",
		"componentType":5126,
		"count":24,
		"byteOffset":12,
		"min":[-1.0,
		-1.0,
		-1.0],
		"max":[1.0,
		1.0,
		1.0]
	},
	{
		"bufferView":3,
		"type":"VEC2",
		"componentType":5126,
		"count":24,
		"byteOffset":24,
		"min":[0.000030517578125,
		0.000030517578125],
		"max":[1.0,
		1.0]
	},
	{
		"bufferView":4,
		"type":"SCALAR",
		"componentType":5123,
		"count":36,
		"byteOffset":0,
		"min":[0],
		"max":[23]
	},
	{
		"bufferView":5,
		"type":"VEC3",
		"componentType":5126,
		"count":24,
		"byteOffset":0,
		"min":[-0.30134317278862,
		-0.008857441134750843,
		-0.23286855220794679],
		"max":[0.2686222195625305,
		0.009158114902675152,
		0.22814078629016877]
	},
	{
		"bufferView":5,
		"type":"VEC3",
		"componentType":5126,
		"count":24,
		"byteOffset":12,
		"min":[-1.0,
		-1.0,
		-1.0],
		"max":[1.0,
		1.0,
		1.0]
	},
	{
		"bufferView":5,
		"type":"VEC2",
		"componentType":5126,
		"count":24,
		"byteOffset":24,
		"min":[0.000030517578125,
		0.000030517578125],
		"max":[1.0,
		1.0]
	},
	{
		"bufferView":6,
		"type":"SCALAR",
		"componentType":5123,
		"count":216,
		"byteOffset":0,
		"min":[0],
		"max":[143]
	},
	{
		"bufferView":7,
		"type":"VEC3",
		"componentType":5126,
		"count":144,
		"byteOffset":0,
		"min":[-0.3192712962627411,
		-0.9888664484024048,
		-0.252228707075119],
		"max":[0.2866598963737488,
		1.0115265846252442,
		0.22814078629016877]
	},
	{
		"bufferView":7,
		"type":"VEC3",
		"componentType":5126,
		"count":144,
		"byteOffset":12,
		"min":[-1.0,
		-1.0,
		-1.0],
		"max":[1.0,
		1.0,
		1.0]
	},
	{
		"bufferView":7,
		"type":"VEC2",
		"componentType":5126,
		"count":144,
		"byteOffset":24,
		"min":[0.000030517578125,
		0.000030517578125],
		"max":[1.0,
		1.0]
	},
	{
		"bufferView":8,
		"type":"SCALAR",
		"componentType":5123,
		"count":66,
		"byteOffset":0,
		"min":[0],
		"max":[37]
	},
	{
		"bufferView":9,
		"type":"VEC3",
		"componentType":5126,
		"count":38,
		"byteOffset":0,
		"min":[-0.2527141571044922,
		-0.09007544815540314,
		-0.21555714309215547],
		"max":[0.24216680228710175,
		0.0019887222442775966,
		0.21435771882534028]
	},
	{
		"bufferView":9,
		"type":"VEC3",
		"componentType":5126,
		"count":38,
		"byteOffset":12,
		"min":[0.0,
		-0.901408851146698,
		-0.3912472128868103],
		"max":[0.0,
		0.9981529712677002,
		0.9999980926513672]
	},
	{
		"bufferView":9,
		"type":"VEC2",
		"componentType":5126,
		"count":38,
		"byteOffset":24,
		"min":[-2.440185546875,
		-2.51129150390625],
		"max":[0.9311370849609375,
		1.0]
	},
	{
		"bufferView":10,
		"type":"SCALAR",
		"componentType":5123,
		"count":240,
		"byteOffset":0,
		"min":[0],
		"max":[115]
	},
	{
		"bufferView":11,
		"type":"VEC3",
		"componentType":5126,
		"count":116,
		"byteOffset":0,
		"min":[-0.28848347067832949,
		-0.09007544815540314,
		-0.22569610178470612],
		"max":[0.2769760489463806,
		0.0019887222442775966,
		0.22495393455028535]
	},
	{
		"bufferView":11,
		"type":"VEC3",
		"componentType":5126,
		"count":116,
		"byteOffset":12,
		"min":[-1.0,
		-0.901408851146698,
		-0.3912472128868103],
		"max":[1.0,
		1.0,
		0.9999980926513672]
	},
	{
		"bufferView":11,
		"type":"VEC2",
		"componentType":5126,
		"count":116,
		"byteOffset":24,
		"min":[-2.51129150390625,
		-2.51129150390625],
		"max":[1.0,
		1.0]
	},
	{
		"bufferView":12,
		"type":"SCALAR",
		"componentType":5123,
		"count":66,
		"byteOffset":0,
		"min":[0],
		"max":[37]
	},
	{
		"bufferView":13,
		"type":"VEC3",
		"componentType":5126,
		"count":38,
		"byteOffset":0,
		"min":[-0.2527141571044922,
		-0.09007544815540314,
		-0.21555714309215547],
		"max":[0.24216680228710175,
		0.0019887222442775966,
		0.21435771882534028]
	},
	{
		"bufferView":13,
		"type":"VEC3",
		"componentType":5126,
		"count":38,
		"byteOffset":12,
		"min":[0.0,
		-0.901408851146698,
		-0.3912472128868103],
		"max":[0.0,
		0.9981529712677002,
		0.9999980926513672]
	},
	{
		"bufferView":13,
		"type":"VEC2",
		"componentType":5126,
		"count":38,
		"byteOffset":24,
		"min":[-2.440185546875,
		-2.51129150390625],
		"max":[0.9311370849609375,
		1.0]
	},
	{
		"bufferView":14,
		"type":"SCALAR",
		"componentType":5123,
		"count":240,
		"byteOffset":0,
		"min":[0],
		"max":[115]
	},
	{
		"bufferView":15,
		"type":"VEC3",
		"componentType":5126,
		"count":116,
		"byteOffset":0,
		"min":[-0.28848347067832949,
		-0.09007544815540314,
		-0.22569610178470612],
		"max":[0.2769760489463806,
		0.0019887222442775966,
		0.22495393455028535]
	},
	{
		"bufferView":15,
		"type":"VEC3",
		"componentType":5126,
		"count":116,
		"byteOffset":12,
		"min":[-1.0,
		-0.901408851146698,
		-0.3912472128868103],
		"max":[1.0,
		1.0,
		0.9999980926513672]
	},
	{
		"bufferView":15,
		"type":"VEC2",
		"componentType":5126,
		"count":116,
		"byteOffset":24,
		"min":[-2.51129150390625,
		-2.51129150390625],
		"max":[1.0,
		1.0]
	},
	{
		"bufferView":16,
		"type":"SCALAR",
		"componentType":5123,
		"count":2046,
		"byteOffset":0,
		"min":[0],
		"max":[1054]
	},
	{
		"bufferView":17,
		"type":"VEC3",
		"componentType":5126,
		"count":1055,
		"byteOffset":0,
		"min":[-0.09688638150691986,
		0.00006688354187645018,
		-0.11953901499509812],
		"max":[0.09688640385866165,
		0.0821300521492958,
		0.11912193149328232]
	},
	{
		"bufferView":17,
		"type":"VEC3",
		"componentType":5126,
		"count":1055,
		"byteOffset":12,
		"min":[-0.9988555312156677,
		-0.999650776386261,
		-0.999400794506073],
		"max":[0.9996454119682312,
		0.9991306066513062,
		0.9995251893997192]
	},
	{
		"bufferView":17,
		"type":"VEC2",
		"componentType":5126,
		"count":1055,
		"byteOffset":24,
		"min":[0.005665311589837074,
		-0.9932049512863159],
		"max":[0.997998833656311,
		-0.0023013679310679437]
	},
	{
		"bufferView":18,
		"type":"SCALAR",
		"componentType":5123,
		"count":9672,
		"byteOffset":0,
		"min":[0],
		"max":[2701]
	},
	{
		"bufferView":19,
		"type":"VEC3",
		"componentType":5126,
		"count":2702,
		"byteOffset":0,
		"min":[-0.08807165175676346,
		0.0,
		-0.1233808696269989],
		"max":[0.08789864182472229,
		0.11960411071777344,
		0.12377163767814636]
	},
	{
		"bufferView":19,
		"type":"VEC3",
		"componentType":5126,
		"count":2702,
		"byteOffset":12,
		"min":[-0.9997698068618774,
		-0.999534010887146,
		-0.9997768402099609],
		"max":[0.9998611807823181,
		0.999633252620697,
		0.9992620944976807]
	},
	{
		"bufferView":19,
		"type":"VEC2",
		"componentType":5126,
		"count":2702,
		"byteOffset":24,
		"min":[0.0020000000949949028,
		-0.9979146718978882],
		"max":[0.9330486059188843,
		-0.001999999862164259]
	},
	{
		"bufferView":20,
		"type":"SCALAR",
		"componentType":5123,
		"count":2298,
		"byteOffset":0,
		"min":[0],
		"max":[619]
	},
	{
		"bufferView":21,
		"type":"VEC3",
		"componentType":5126,
		"count":620,
		"byteOffset":0,
		"min":[-0.10882618278265,
		0.0004461955977603793,
		-0.13848155736923219],
		"max":[0.10948251932859421,
		0.11076568812131882,
		0.13893041014671327]
	},
	{
		"bufferView":21,
		"type":"VEC3",
		"componentType":5126,
		"count":620,
		"byteOffset":12,
		"min":[-0.9980563521385193,
		-0.9996640086174011,
		-0.9942855834960938],
		"max":[0.9985154271125794,
		0.9964801073074341,
		0.9861353635787964]
	},
	{
		"bufferView":21,
		"type":"VEC2",
		"componentType":5126,
		"count":620,
		"byteOffset":24,
		"min":[0.0019499999471008778,
		-0.9623849391937256],
		"max":[0.9975900053977966,
		-0.006324999034404755]
	},
	{
		"bufferView":22,
		"type":"SCALAR",
		"componentType":5123,
		"count":2298,
		"byteOffset":0,
		"min":[0],
		"max":[619]
	},
	{
		"bufferView":23,
		"type":"VEC3",
		"componentType":5126,
		"count":620,
		"byteOffset":0,
		"min":[-0.10882618278265,
		0.0004461955977603793,
		-0.13848155736923219],
		"max":[0.10948251932859421,
		0.11076568812131882,
		0.13893041014671327]
	},
	{
		"bufferView":23,
		"type":"VEC3",
		"componentType":5126,
		"count":620,
		"byteOffset":12,
		"min":[-0.9980563521385193,
		-0.9996640086174011,
		-0.9942855834960938],
		"max":[0.9985154271125794,
		0.9964801073074341,
		0.9861353635787964]
	},
	{
		"bufferView":23,
		"type":"VEC2",
		"componentType":5126,
		"count":620,
		"byteOffset":24,
		"min":[0.0019499999471008778,
		-0.9623849391937256],
		"max":[0.9975900053977966,
		-0.006324999034404755]
	}],
	"asset":{
		"version":"2.0",
		"generator":"Maxon Cinema 4D 2025.1.1 (#200000219)"
	},
	"scenes":[{
		"nodes":[0,
		1,
		2,
		3,
		4,
		5,
		6,
		7,
		8,
		9]
	}],
	"nodes":[{
		"name":"Shoe Rack.2",
		"rotation":[0.0,
		1.0,
		0.0,
		-6.123234262925839e-17],
		"translation":[-0.047923680394887927,
		0.39914989471435549,
		4.440891999238953e-18],
		"scale":[1.0,
		1.0,
		1.0],
		"children":[10,
		11]
	},
	{
		"name":"Shoe Rack.1",
		"rotation":[0.0,
		1.0,
		0.0,
		-6.123234262925839e-17],
		"translation":[-0.047923680394887927,
		0.18637040257453919,
		4.440891999238953e-18],
		"scale":[1.0,
		1.0,
		1.0],
		"children":[12,
		13]
	},
	{
		"name":"Shoes_1",
		"rotation":[1.0632883996222038e-17,
		0.9848077297210693,
		0.1736481785774231,
		-6.030208207749146e-17],
		"translation":[0.07185713201761246,
		0.3595230281352997,
		-0.09830585867166519],
		"scale":[1.0,
		1.0,
		1.0],
		"children":[14]
	},
	{
		"name":"Shoe_2",
		"rotation":[1.0632883996222038e-17,
		0.9848077297210693,
		0.1736481785774231,
		-6.030208207749146e-17],
		"translation":[-0.20632904767990113,
		0.14938054978847505,
		-0.10610004514455795],
		"scale":[1.0,
		1.0,
		1.0],
		"children":[15]
	},
	{
		"name":"Shoe_3",
		"rotation":[1.0632883996222038e-17,
		0.9848077297210693,
		0.1736481785774231,
		-6.030208207749146e-17],
		"translation":[0.07873894274234772,
		0.1332089751958847,
		-0.06822904944419861],
		"scale":[1.0,
		1.0,
		1.0],
		"children":[16]
	},
	{
		"name":"Shoe_4",
		"rotation":[1.2743276510473477e-17,
		0.9781047105789185,
		0.20811350643634797,
		-5.989164167498755e-17],
		"translation":[-0.17838966846466065,
		0.35938140749931338,
		-0.10502230376005173],
		"scale":[1.0,
		1.0,
		1.0],
		"children":[17]
	},
	{
		"name":"Metal Hanger Bar",
		"mesh":0,
		"rotation":[0.0,
		1.0,
		0.0,
		-6.123234262925839e-17],
		"translation":[-0.05825607106089592,
		1.6181614398956299,
		0.00003120789187960327],
		"scale":[1.0,
		1.0,
		1.0]
	},
	{
		"name":"Shelf",
		"mesh":1,
		"rotation":[0.0,
		1.0,
		0.0,
		-6.123234262925839e-17],
		"translation":[-0.05825607106089592,
		1.708128809928894,
		0.00003120789187960327],
		"scale":[1.0,
		1.0,
		1.0]
	},
	{
		"name":"Shelf",
		"mesh":2,
		"rotation":[0.0,
		1.0,
		0.0,
		-6.123234262925839e-17],
		"translation":[-0.05825607106089592,
		0.5649912357330322,
		0.00003120789187960327],
		"scale":[1.0,
		1.0,
		1.0]
	},
	{
		"name":"Wardrobe Base",
		"mesh":3,
		"rotation":[0.0,
		1.0,
		0.0,
		-6.123234262925839e-17],
		"translation":[-0.05825607106089592,
		0.9885458946228027,
		0.00003120789187960327],
		"scale":[1.0,
		1.0,
		1.0]
	},
	{
		"name":"Shoe Rack.2-White Mesh",
		"mesh":4
	},
	{
		"name":"Shoe Rack.2-Gloss White",
		"mesh":5
	},
	{
		"name":"Shoe Rack.1-White Mesh",
		"mesh":6
	},
	{
		"name":"Shoe Rack.1-Gloss White",
		"mesh":7
	},
	{
		"name":"Shoes_1-Shoes_1",
		"mesh":8
	},
	{
		"name":"Shoe_2-Shoes_2",
		"mesh":9
	},
	{
		"name":"Shoe_3-Shoes_3",
		"mesh":10
	},
	{
		"name":"Shoe_4-Shoes_4",
		"mesh":11
	}],
	"meshes":[{
		"name":"Metal Hanger Bar",
		"primitives":[{
			"attributes":{
				"POSITION":1,
				"NORMAL":2,
				"TEXCOORD_0":3
			},
			"indices":0,
			"material":0
		}]
	},
	{
		"name":"Shelf",
		"primitives":[{
			"attributes":{
				"POSITION":5,
				"NORMAL":6,
				"TEXCOORD_0":7
			},
			"indices":4,
			"material":1
		}]
	},
	{
		"name":"Shelf",
		"primitives":[{
			"attributes":{
				"POSITION":9,
				"NORMAL":10,
				"TEXCOORD_0":11
			},
			"indices":8,
			"material":1
		}]
	},
	{
		"name":"Wardrobe Base",
		"primitives":[{
			"attributes":{
				"POSITION":13,
				"NORMAL":14,
				"TEXCOORD_0":15
			},
			"indices":12,
			"material":1
		}]
	},
	{
		"name":"Shoe Rack.2-White Mesh",
		"primitives":[{
			"attributes":{
				"POSITION":17,
				"NORMAL":18,
				"TEXCOORD_0":19
			},
			"indices":16,
			"material":2
		}]
	},
	{
		"name":"Shoe Rack.2-Gloss White",
		"primitives":[{
			"attributes":{
				"POSITION":21,
				"NORMAL":22,
				"TEXCOORD_0":23
			},
			"indices":20,
			"material":3
		}]
	},
	{
		"name":"Shoe Rack.1-White Mesh",
		"primitives":[{
			"attributes":{
				"POSITION":25,
				"NORMAL":26,
				"TEXCOORD_0":27
			},
			"indices":24,
			"material":2
		}]
	},
	{
		"name":"Shoe Rack.1-Gloss White",
		"primitives":[{
			"attributes":{
				"POSITION":29,
				"NORMAL":30,
				"TEXCOORD_0":31
			},
			"indices":28,
			"material":3
		}]
	},
	{
		"name":"Shoes_1-Shoes_1",
		"primitives":[{
			"attributes":{
				"POSITION":33,
				"NORMAL":34,
				"TEXCOORD_0":35
			},
			"indices":32,
			"material":4
		}]
	},
	{
		"name":"Shoe_2-Shoes_2",
		"primitives":[{
			"attributes":{
				"POSITION":37,
				"NORMAL":38,
				"TEXCOORD_0":39
			},
			"indices":36,
			"material":5
		}]
	},
	{
		"name":"Shoe_3-Shoes_3",
		"primitives":[{
			"attributes":{
				"POSITION":41,
				"NORMAL":42,
				"TEXCOORD_0":43
			},
			"indices":40,
			"material":6
		}]
	},
	{
		"name":"Shoe_4-Shoes_4",
		"primitives":[{
			"attributes":{
				"POSITION":45,
				"NORMAL":46,
				"TEXCOORD_0":47
			},
			"indices":44,
			"material":7
		}]
	}],
	"bufferViews":[{
		"buffer":0,
		"byteOffset":0,
		"byteLength":1920,
		"target":34963
	},
	{
		"buffer":0,
		"byteOffset":1920,
		"byteLength":7392,
		"target":34962,
		"byteStride":32
	},
	{
		"buffer":1,
		"byteOffset":0,
		"byteLength":72,
		"target":34963
	},
	{
		"buffer":1,
		"byteOffset":72,
		"byteLength":768,
		"target":34962,
		"byteStride":32
	},
	{
		"buffer":2,
		"byteOffset":0,
		"byteLength":72,
		"target":34963
	},
	{
		"buffer":2,
		"byteOffset":72,
		"byteLength":768,
		"target":34962,
		"byteStride":32
	},
	{
		"buffer":3,
		"byteOffset":0,
		"byteLength":432,
		"target":34963
	},
	{
		"buffer":3,
		"byteOffset":432,
		"byteLength":4608,
		"target":34962,
		"byteStride":32
	},
	{
		"buffer":4,
		"byteOffset":0,
		"byteLength":132,
		"target":34963
	},
	{
		"buffer":4,
		"byteOffset":132,
		"byteLength":1216,
		"target":34962,
		"byteStride":32
	},
	{
		"buffer":5,
		"byteOffset":0,
		"byteLength":480,
		"target":34963
	},
	{
		"buffer":5,
		"byteOffset":480,
		"byteLength":3712,
		"target":34962,
		"byteStride":32
	},
	{
		"buffer":6,
		"byteOffset":0,
		"byteLength":132,
		"target":34963
	},
	{
		"buffer":6,
		"byteOffset":132,
		"byteLength":1216,
		"target":34962,
		"byteStride":32
	},
	{
		"buffer":7,
		"byteOffset":0,
		"byteLength":480,
		"target":34963
	},
	{
		"buffer":7,
		"byteOffset":480,
		"byteLength":3712,
		"target":34962,
		"byteStride":32
	},
	{
		"buffer":8,
		"byteOffset":0,
		"byteLength":4092,
		"target":34963
	},
	{
		"buffer":8,
		"byteOffset":4092,
		"byteLength":33760,
		"target":34962,
		"byteStride":32
	},
	{
		"buffer":9,
		"byteOffset":0,
		"byteLength":19344,
		"target":34963
	},
	{
		"buffer":9,
		"byteOffset":19344,
		"byteLength":86464,
		"target":34962,
		"byteStride":32
	},
	{
		"buffer":10,
		"byteOffset":0,
		"byteLength":4596,
		"target":34963
	},
	{
		"buffer":10,
		"byteOffset":4596,
		"byteLength":19840,
		"target":34962,
		"byteStride":32
	},
	{
		"buffer":11,
		"byteOffset":0,
		"byteLength":4596,
		"target":34963
	},
	{
		"buffer":11,
		"byteOffset":4596,
		"byteLength":19840,
		"target":34962,
		"byteStride":32
	}],
	"buffers":[{
		"uri":"data:application/octet-stream;base64,",
		"byteLength":9312
	},
	{
		"uri":"data:application/octet-stream;base64,",
		"byteLength":840
	},
	{
		"uri":"data:application/octet-stream;base64,",
		"byteLength":840
	},
	{
		"uri":"data:application/octet-stream;base64,",
		"byteLength":5040
	},
	{
		"uri":"data:application/octet-stream;base64,",
		"byteLength":1348
	},
	{
		"uri":"data:application/octet-stream;base64,",
		"byteLength":4192
	},
	{
		"uri":"data:application/octet-stream;base64,",
		"byteLength":1348
	},
	{
		"uri":"data:application/octet-stream;base64,",
		"byteLength":4192
	},
	{
		"uri":"data:application/octet-stream;base64,",
		"byteLength":37852
	},
	{
		"uri":"data:application/octet-stream;base64,",
		"byteLength":105808
	},
	{
		"uri":"data:application/octet-stream;base64,",
		"byteLength":24436
	},
	{
		"uri":"data:application/octet-stream;base64,",
		"byteLength":24436
	}],
	"images":[{
		"uri":"data:image/png;base64,"
	},
	{
		"uri":"data:image/jpeg;base64,"
	},
	{
		"uri":"data:image/png;base64,"
	},
	{
		"uri":"data:image/png;base64,"
	},
	{
		"uri":"data:image/png;base64,"
	}],
	"samplers":[{
		"magFilter":9729,
		"minFilter":9729,
		"wrapS":10497,
		"wrapT":10497
	},
	{
		"magFilter":9729,
		"minFilter":9729,
		"wrapS":10497,
		"wrapT":10497
	},
	{
		"magFilter":9729,
		"minFilter":9729,
		"wrapS":10497,
		"wrapT":10497
	},
	{
		"magFilter":9729,
		"minFilter":9729,
		"wrapS":10497,
		"wrapT":10497
	},
	{
		"magFilter":9729,
		"minFilter":9729,
		"wrapS":10497,
		"wrapT":10497
	}],
	"textures":[{
		"sampler":0,
		"source":0
	},
	{
		"sampler":1,
		"source":1
	},
	{
		"sampler":2,
		"source":2
	},
	{
		"sampler":3,
		"source":3
	},
	{
		"sampler":4,
		"source":4
	}],
	"materials":[{
		"pbrMetallicRoughness":{
			"baseColorFactor":[0.6900000000000001,
			0.6900000000000001,
			0.6900000000000001,
			1.0],
			"metallicFactor":0.0,
			"roughnessFactor":0.67
		},
		"emissiveFactor":[0.0,
		0.0,
		0.0],
		"alphaMode":"OPAQUE",
		"doubleSided":true,
		"name":"Metal"
	},
	{
		"pbrMetallicRoughness":{
			"baseColorFactor":[0.8,
			0.8,
			0.8,
			1.0],
			"metallicFactor":0.0,
			"roughnessFactor":0.34
		},
		"emissiveFactor":[0.0,
		0.0,
		0.0],
		"alphaMode":"OPAQUE",
		"doubleSided":true,
		"name":"Gloss White"
	},
	{
		"pbrMetallicRoughness":{
			"baseColorTexture":{
				"index":0
			},
			"baseColorFactor":[0.8,
			0.8,
			0.8,
			1.0],
			"metallicFactor":0.0,
			"roughnessFactor":0.5
		},
		"emissiveFactor":[0.0,
		0.0,
		0.0],
		"alphaMode":"BLEND",
		"doubleSided":true,
		"name":"White Mesh"
	},
	{
		"pbrMetallicRoughness":{
			"baseColorFactor":[0.8,
			0.8,
			0.8,
			1.0],
			"metallicFactor":0.0,
			"roughnessFactor":0.34
		},
		"emissiveFactor":[0.0,
		0.0,
		0.0],
		"alphaMode":"OPAQUE",
		"doubleSided":true,
		"name":"Gloss White"
	},
	{
		"pbrMetallicRoughness":{
			"baseColorTexture":{
				"index":1
			},
			"baseColorFactor":[1.0,
			1.0,
			1.0,
			1.0],
			"metallicFactor":0.0,
			"roughnessFactor":0.34
		},
		"emissiveFactor":[0.0,
		0.0,
		0.0],
		"alphaMode":"OPAQUE",
		"doubleSided":true,
		"name":"Shoes_1"
	},
	{
		"pbrMetallicRoughness":{
			"baseColorTexture":{
				"index":2
			},
			"baseColorFactor":[1.0,
			1.0,
			1.0,
			1.0],
			"metallicFactor":0.0,
			"roughnessFactor":0.34
		},
		"emissiveFactor":[0.0,
		0.0,
		0.0],
		"alphaMode":"OPAQUE",
		"doubleSided":true,
		"name":"Shoes_2"
	},
	{
		"pbrMetallicRoughness":{
			"baseColorTexture":{
				"index":3
			},
			"baseColorFactor":[1.0,
			1.0,
			1.0,
			1.0],
			"metallicFactor":0.0,
			"roughnessFactor":0.34
		},
		"emissiveFactor":[0.0,
		0.0,
		0.0],
		"alphaMode":"OPAQUE",
		"doubleSided":true,
		"name":"Shoes_3"
	},
	{
		"pbrMetallicRoughness":{
			"baseColorTexture":{
				"index":4
			},
			"baseColorFactor":[1.0,
			1.0,
			1.0,
			1.0],
			"metallicFactor":0.0,
			"roughnessFactor":0.34
		},
		"emissiveFactor":[0.0,
		0.0,
		0.0],
		"alphaMode":"OPAQUE",
		"doubleSided":true,
		"name":"Shoes_4"
	}]
}