{
	"asset":{
		"version":"2.0",
		"generator":"Maxon Cinema 4D 2025.1.1 (#200000219)"
	},
	"scenes":[{
		"nodes":[0,
		1,
		2,
		3,
		4,
		5,
		6,
		7]
	}],
	"nodes":[{
		"name":"Shelf_2",
		"rotation":[0.0,
		0.0,
		0.0,
		-1.0],
		"translation":[0.048474956303834918,
		0.98649662733078,
		0.017681041732430459],
		"mesh":0,
		"scale":[1.0,
		1.0,
		1.0]
	},
	{
		"name":"Shelf_1",
		"rotation":[0.0,
		0.0,
		0.0,
		-1.0],
		"translation":[0.048474956303834918,
		1.3668497800827027,
		0.017681041732430459],
		"mesh":1,
		"scale":[1.0,
		1.0,
		1.0]
	},
	{
		"name":"Shelf",
		"rotation":[0.0,
		0.0,
		0.0,
		-1.0],
		"translation":[0.048474956303834918,
		1.7033768892288209,
		0.017681041732430459],
		"mesh":2,
		"scale":[1.0,
		1.0,
		1.0]
	},
	{
		"name":"Drawer_Glass",
		"rotation":[0.0,
		0.0,
		0.0,
		-1.0],
		"translation":[0.031145157292485238,
		0.54425448179245,
		-0.09379865229129791],
		"scale":[1.0,
		1.0,
		1.0],
		"children":[8,
		9]
	},
	{
		"name":"Drawer_Glass 2",
		"rotation":[0.0,
		0.0,
		0.0,
		-1.0],
		"translation":[0.031145157292485238,
		0.7649253010749817,
		-0.09379865229129791],
		"scale":[1.0,
		1.0,
		1.0],
		"children":[10,
		11]
	},
	{
		"name":"Drawer_2",
		"rotation":[0.0,
		0.0,
		0.0,
		-1.0],
		"translation":[0.030656445771455766,
		0.4160034954547882,
		0.027413351461291314],
		"mesh":3,
		"scale":[1.0,
		1.0,
		1.0]
	},
	{
		"name":"Drawer_1",
		"rotation":[0.0,
		0.0,
		0.0,
		-1.0],
		"translation":[0.030656445771455766,
		0.19668544828891755,
		0.027413351461291314],
		"mesh":4,
		"scale":[1.0,
		1.0,
		1.0]
	},
	{
		"name":"Wardrobe Base",
		"rotation":[0.0,
		0.0,
		0.0,
		-1.0],
		"translation":[0.04755065590143204,
		0.9885458946228027,
		0.014820028096437455],
		"mesh":5,
		"scale":[1.0,
		1.0,
		1.0]
	},
	{
		"name":"Drawer_Glass-Gloss White",
		"mesh":6
	},
	{
		"name":"Drawer_Glass-Glass",
		"mesh":7
	},
	{
		"name":"Drawer_Glass 2-Gloss White",
		"mesh":8
	},
	{
		"name":"Drawer_Glass 2-Glass",
		"mesh":9
	}],
	"meshes":[{
		"name":"Shelf_2",
		"primitives":[{
			"attributes":{
				"POSITION":1,
				"TEXCOORD_0":2
			},
			"indices":0,
			"material":0
		}]
	},
	{
		"name":"Shelf_1",
		"primitives":[{
			"attributes":{
				"POSITION":4,
				"TEXCOORD_0":5
			},
			"indices":3,
			"material":0
		}]
	},
	{
		"name":"Shelf",
		"primitives":[{
			"attributes":{
				"POSITION":7,
				"TEXCOORD_0":8
			},
			"indices":6,
			"material":0
		}]
	},
	{
		"name":"Drawer_2",
		"primitives":[{
			"attributes":{
				"POSITION":10,
				"TEXCOORD_0":11
			},
			"indices":9,
			"material":1
		}]
	},
	{
		"name":"Drawer_1",
		"primitives":[{
			"attributes":{
				"POSITION":13,
				"TEXCOORD_0":14
			},
			"indices":12,
			"material":1
		}]
	},
	{
		"name":"Wardrobe Base",
		"primitives":[{
			"attributes":{
				"POSITION":16,
				"TEXCOORD_0":17
			},
			"indices":15,
			"material":0
		}]
	},
	{
		"name":"Drawer_Glass-Gloss White",
		"primitives":[{
			"attributes":{
				"POSITION":19,
				"NORMAL":20,
				"TEXCOORD_0":21
			},
			"indices":18,
			"material":1
		}]
	},
	{
		"name":"Drawer_Glass-Glass",
		"primitives":[{
			"attributes":{
				"POSITION":23,
				"NORMAL":24,
				"TEXCOORD_0":25
			},
			"indices":22,
			"material":2
		}]
	},
	{
		"name":"Drawer_Glass 2-Gloss White",
		"primitives":[{
			"attributes":{
				"POSITION":27,
				"NORMAL":28,
				"TEXCOORD_0":29
			},
			"indices":26,
			"material":1
		}]
	},
	{
		"name":"Drawer_Glass 2-Glass",
		"primitives":[{
			"attributes":{
				"POSITION":31,
				"NORMAL":32,
				"TEXCOORD_0":33
			},
			"indices":30,
			"material":2
		}]
	}],
	"accessors":[{
		"bufferView":0,
		"type":"SCALAR",
		"componentType":5123,
		"count":36,
		"byteOffset":0,
		"min":[0],
		"max":[19]
	},
	{
		"bufferView":1,
		"type":"VEC3",
		"componentType":5126,
		"count":20,
		"byteOffset":0,
		"min":[-0.30134317278862,
		-0.008082559332251549,
		-0.22814078629016877],
		"max":[0.2686222195625305,
		0.009932996705174446,
		0.23286855220794679]
	},
	{
		"bufferView":1,
		"type":"VEC2",
		"componentType":5126,
		"count":20,
		"byteOffset":12,
		"min":[0.0,
		0.0],
		"max":[1.0,
		1.0]
	},
	{
		"bufferView":2,
		"type":"SCALAR",
		"componentType":5123,
		"count":36,
		"byteOffset":0,
		"min":[0],
		"max":[19]
	},
	{
		"bufferView":3,
		"type":"VEC3",
		"componentType":5126,
		"count":20,
		"byteOffset":0,
		"min":[-0.30134317278862,
		-0.008082559332251549,
		-0.22814078629016877],
		"max":[0.2686222195625305,
		0.009932996705174446,
		0.23286855220794679]
	},
	{
		"bufferView":3,
		"type":"VEC2",
		"componentType":5126,
		"count":20,
		"byteOffset":12,
		"min":[0.0,
		0.0],
		"max":[1.0,
		1.0]
	},
	{
		"bufferView":4,
		"type":"SCALAR",
		"componentType":5123,
		"count":36,
		"byteOffset":0,
		"min":[0],
		"max":[19]
	},
	{
		"bufferView":5,
		"type":"VEC3",
		"componentType":5126,
		"count":20,
		"byteOffset":0,
		"min":[-0.30134317278862,
		-0.008082559332251549,
		-0.22814078629016877],
		"max":[0.2686222195625305,
		0.009932996705174446,
		0.23286855220794679]
	},
	{
		"bufferView":5,
		"type":"VEC2",
		"componentType":5126,
		"count":20,
		"byteOffset":12,
		"min":[0.0,
		0.0],
		"max":[1.0,
		1.0]
	},
	{
		"bufferView":6,
		"type":"SCALAR",
		"componentType":5123,
		"count":180,
		"byteOffset":0,
		"min":[0],
		"max":[99]
	},
	{
		"bufferView":7,
		"type":"VEC3",
		"componentType":5126,
		"count":100,
		"byteOffset":0,
		"min":[-0.2820786237716675,
		-0.09312357008457184,
		-0.23789606988430024],
		"max":[0.28321266174316409,
		0.10187678784132004,
		0.21445444226264954]
	},
	{
		"bufferView":7,
		"type":"VEC2",
		"componentType":5126,
		"count":100,
		"byteOffset":12,
		"min":[0.0,
		0.0],
		"max":[1.0,
		1.0]
	},
	{
		"bufferView":8,
		"type":"SCALAR",
		"componentType":5123,
		"count":180,
		"byteOffset":0,
		"min":[0],
		"max":[99]
	},
	{
		"bufferView":9,
		"type":"VEC3",
		"componentType":5126,
		"count":100,
		"byteOffset":0,
		"min":[-0.2820786237716675,
		-0.09312357008457184,
		-0.23789606988430024],
		"max":[0.28321266174316409,
		0.10187678784132004,
		0.21445444226264954]
	},
	{
		"bufferView":9,
		"type":"VEC2",
		"componentType":5126,
		"count":100,
		"byteOffset":12,
		"min":[0.0,
		0.0],
		"max":[1.0,
		1.0]
	},
	{
		"bufferView":10,
		"type":"SCALAR",
		"componentType":5123,
		"count":216,
		"byteOffset":0,
		"min":[0],
		"max":[119]
	},
	{
		"bufferView":11,
		"type":"VEC3",
		"componentType":5126,
		"count":120,
		"byteOffset":0,
		"min":[-0.3192712962627411,
		-0.9888664484024048,
		-0.22814078629016877],
		"max":[0.2866598963737488,
		1.0115265846252442,
		0.252228707075119]
	},
	{
		"bufferView":11,
		"type":"VEC2",
		"componentType":5126,
		"count":120,
		"byteOffset":12,
		"min":[0.0,
		0.0],
		"max":[1.0,
		1.0]
	},
	{
		"bufferView":12,
		"type":"SCALAR",
		"componentType":5123,
		"count":396,
		"byteOffset":0,
		"min":[0],
		"max":[197]
	},
	{
		"bufferView":13,
		"type":"VEC3",
		"componentType":5126,
		"count":198,
		"byteOffset":0,
		"min":[-0.2825673520565033,
		-0.0004588392621371895,
		-0.11676254868507385],
		"max":[0.28272393345832827,
		0.19454151391983033,
		0.3355879485607147]
	},
	{
		"bufferView":13,
		"type":"VEC3",
		"componentType":5126,
		"count":198,
		"byteOffset":12,
		"min":[-1.0,
		-1.0,
		-1.0],
		"max":[1.0,
		1.0,
		1.0]
	},
	{
		"bufferView":13,
		"type":"VEC2",
		"componentType":5126,
		"count":198,
		"byteOffset":24,
		"min":[0.0,
		0.0],
		"max":[1.0,
		1.0]
	},
	{
		"bufferView":14,
		"type":"SCALAR",
		"componentType":5123,
		"count":6,
		"byteOffset":0,
		"min":[0],
		"max":[3]
	},
	{
		"bufferView":15,
		"type":"VEC3",
		"componentType":5126,
		"count":4,
		"byteOffset":0,
		"min":[-0.2530798017978668,
		0.015009511262178421,
		-0.10981252789497376],
		"max":[0.25281822681427,
		0.19343875348567964,
		-0.10981252789497376]
	},
	{
		"bufferView":15,
		"type":"VEC3",
		"componentType":5126,
		"count":4,
		"byteOffset":12,
		"min":[0.0,
		0.0,
		-1.0],
		"max":[0.0,
		0.0,
		-1.0]
	},
	{
		"bufferView":15,
		"type":"VEC2",
		"componentType":5126,
		"count":4,
		"byteOffset":24,
		"min":[0.0,
		0.0],
		"max":[1.0,
		1.0]
	},
	{
		"bufferView":16,
		"type":"SCALAR",
		"componentType":5123,
		"count":396,
		"byteOffset":0,
		"min":[0],
		"max":[197]
	},
	{
		"bufferView":17,
		"type":"VEC3",
		"componentType":5126,
		"count":198,
		"byteOffset":0,
		"min":[-0.2825673520565033,
		-0.0004588392621371895,
		-0.11676254868507385],
		"max":[0.28272393345832827,
		0.19454151391983033,
		0.3355879485607147]
	},
	{
		"bufferView":17,
		"type":"VEC3",
		"componentType":5126,
		"count":198,
		"byteOffset":12,
		"min":[-1.0,
		-1.0,
		-1.0],
		"max":[1.0,
		1.0,
		1.0]
	},
	{
		"bufferView":17,
		"type":"VEC2",
		"componentType":5126,
		"count":198,
		"byteOffset":24,
		"min":[0.0,
		0.0],
		"max":[1.0,
		1.0]
	},
	{
		"bufferView":18,
		"type":"SCALAR",
		"componentType":5123,
		"count":6,
		"byteOffset":0,
		"min":[0],
		"max":[3]
	},
	{
		"bufferView":19,
		"type":"VEC3",
		"componentType":5126,
		"count":4,
		"byteOffset":0,
		"min":[-0.2530798017978668,
		0.015009511262178421,
		-0.10981252789497376],
		"max":[0.25281822681427,
		0.19343875348567964,
		-0.10981252789497376]
	},
	{
		"bufferView":19,
		"type":"VEC3",
		"componentType":5126,
		"count":4,
		"byteOffset":12,
		"min":[0.0,
		0.0,
		-1.0],
		"max":[0.0,
		0.0,
		-1.0]
	},
	{
		"bufferView":19,
		"type":"VEC2",
		"componentType":5126,
		"count":4,
		"byteOffset":24,
		"min":[0.0,
		0.0],
		"max":[1.0,
		1.0]
	}],
	"bufferViews":[{
		"buffer":0,
		"byteOffset":0,
		"byteLength":72,
		"target":34963
	},
	{
		"buffer":0,
		"byteOffset":72,
		"byteLength":400,
		"target":34962,
		"byteStride":20
	},
	{
		"buffer":1,
		"byteOffset":0,
		"byteLength":72,
		"target":34963
	},
	{
		"buffer":1,
		"byteOffset":72,
		"byteLength":400,
		"target":34962,
		"byteStride":20
	},
	{
		"buffer":2,
		"byteOffset":0,
		"byteLength":72,
		"target":34963
	},
	{
		"buffer":2,
		"byteOffset":72,
		"byteLength":400,
		"target":34962,
		"byteStride":20
	},
	{
		"buffer":3,
		"byteOffset":0,
		"byteLength":360,
		"target":34963
	},
	{
		"buffer":3,
		"byteOffset":360,
		"byteLength":2000,
		"target":34962,
		"byteStride":20
	},
	{
		"buffer":4,
		"byteOffset":0,
		"byteLength":360,
		"target":34963
	},
	{
		"buffer":4,
		"byteOffset":360,
		"byteLength":2000,
		"target":34962,
		"byteStride":20
	},
	{
		"buffer":5,
		"byteOffset":0,
		"byteLength":432,
		"target":34963
	},
	{
		"buffer":5,
		"byteOffset":432,
		"byteLength":2400,
		"target":34962,
		"byteStride":20
	},
	{
		"buffer":6,
		"byteOffset":0,
		"byteLength":792,
		"target":34963
	},
	{
		"buffer":6,
		"byteOffset":792,
		"byteLength":6336,
		"target":34962,
		"byteStride":32
	},
	{
		"buffer":7,
		"byteOffset":0,
		"byteLength":12,
		"target":34963
	},
	{
		"buffer":7,
		"byteOffset":12,
		"byteLength":128,
		"target":34962,
		"byteStride":32
	},
	{
		"buffer":8,
		"byteOffset":0,
		"byteLength":792,
		"target":34963
	},
	{
		"buffer":8,
		"byteOffset":792,
		"byteLength":6336,
		"target":34962,
		"byteStride":32
	},
	{
		"buffer":9,
		"byteOffset":0,
		"byteLength":12,
		"target":34963
	},
	{
		"buffer":9,
		"byteOffset":12,
		"byteLength":128,
		"target":34962,
		"byteStride":32
	}],
	"buffers":[{
		"uri":"data:application/octet-stream;base64,",
		"byteLength":472
	},
	{
		"uri":"data:application/octet-stream;base64,",
		"byteLength":472
	},
	{
		"uri":"data:application/octet-stream;base64,",
		"byteLength":472
	},
	{
		"uri":"data:application/octet-stream;base64,",
		"byteLength":2360
	},
	{
		"uri":"data:application/octet-stream;base64,",
		"byteLength":2360
	},
	{
		"uri":"data:application/octet-stream;base64,",
		"byteLength":2832
	},
	{
		"uri":"data:application/octet-stream;base64,",
		"byteLength":7128
	},
	{
		"uri":"data:application/octet-stream;base64,",
		"byteLength":140
	},
	{
		"uri":"data:application/octet-stream;base64,",
		"byteLength":7128
	},
	{
		"uri":"data:application/octet-stream;base64,",
		"byteLength":140
	}],
	"materials":[{
		"pbrMetallicRoughness":{
			"baseColorFactor":[0.8,
			0.8,
			0.8,
			1.0],
			"metallicFactor":0.0,
			"roughnessFactor":0.34
		},
		"emissiveFactor":[0.0,
		0.0,
		0.0],
		"alphaMode":"OPAQUE",
		"doubleSided":true,
		"name":"Gloss White"
	},
	{
		"pbrMetallicRoughness":{
			"baseColorFactor":[0.8,
			0.8,
			0.8,
			1.0],
			"metallicFactor":0.0,
			"roughnessFactor":0.34
		},
		"emissiveFactor":[0.0,
		0.0,
		0.0],
		"alphaMode":"OPAQUE",
		"doubleSided":true,
		"name":"Gloss White"
	},
	{
		"pbrMetallicRoughness":{
			"baseColorFactor":[0.8,
			0.8,
			0.8,
			0.0],
			"metallicFactor":0.0,
			"roughnessFactor":0.5
		},
		"emissiveFactor":[0.0,
		0.0,
		0.0],
		"alphaMode":"BLEND",
		"doubleSided":true,
		"name":"Glass"
	}]
}