{
	"asset":{
		"version":"2.0",
		"generator":"Maxon Cinema 4D 2025.1.1 (#200000219)"
	},
	"scenes":[{
		"nodes":[0,
		1]
	}],
	"nodes":[{
		"name":"01684_Simplified",
		"translation":[-0.0004887114046141505,
		0.8250895142555237,
		0.010167638771235943],
		"rotation":[0.0,
		0.0,
		0.0,
		-1.0],
		"scale":[1.0,
		1.0,
		1.0]
	},
	{
		"name":"01687",
		"rotation":[0.0,
		0.0,
		0.0,
		-1.0],
		"mesh":0,
		"translation":[0.32077160477638247,
		0.9481528997421265,
		-0.15775945782661439],
		"scale":[1.0,
		1.0,
		1.0]
	}],
	"meshes":[{
		"primitives":[{
			"attributes":{
				"POSITION":1,
				"TEXCOORD_0":2
			},
			"indices":0,
			"material":0
		}],
		"name":"01687"
	}],
	"accessors":[{
		"count":756,
		"bufferView":0,
		"type":"SCALAR",
		"componentType":5123,
		"byteOffset":0,
		"min":[0],
		"max":[419]
	},
	{
		"count":420,
		"bufferView":1,
		"type":"VEC3",
		"componentType":5126,
		"byteOffset":0,
		"min":[-0.5292102694511414,
		-0.9483173489570618,
		-0.5766848921775818],
		"max":[0.45906510949134829,
		1.051891565322876,
		0.39349910616874697]
	},
	{
		"count":420,
		"bufferView":1,
		"type":"VEC2",
		"componentType":5126,
		"byteOffset":12,
		"min":[0.0,
		0.0],
		"max":[1.0,
		1.0]
	}],
	"bufferViews":[{
		"buffer":0,
		"target":34963,
		"byteOffset":0,
		"byteLength":1512
	},
	{
		"buffer":0,
		"target":34962,
		"byteOffset":1512,
		"byteLength":8400,
		"byteStride":20
	}],
	"buffers":[{
		"uri":"data:application/octet-stream;base64,",
		"byteLength":9912
	}],
	"materials":[{
		"pbrMetallicRoughness":{
			"baseColorFactor":[0.8,
			0.8,
			0.8,
			1.0],
			"metallicFactor":0.0,
			"roughnessFactor":0.34
		},
		"emissiveFactor":[0.0,
		0.0,
		0.0],
		"alphaMode":"OPAQUE",
		"doubleSided":false,
		"name":"Gloss White"
	}]
}