{
	"asset":{
		"version":"2.0",
		"generator":"Maxon Cinema 4D 2025.1.1 (#200000219)"
	},
	"scenes":[{
		"nodes":[0,
		1,
		2,
		3,
		4,
		5,
		6,
		7,
		8]
	}],
	"nodes":[{
		"name":"Clothing.3",
		"mesh":0,
		"translation":[-0.02439725399017334,
		0.35907551646232607,
		-0.0655287429690361],
		"scale":[0.9999999403953552,
		1.0,
		0.9999999403953552],
		"rotation":[-1.2904783908140871e-8,
		0.7071067690849304,
		-1.2904783908140871e-8,
		0.7071067690849304]
	},
	{
		"name":"Clothing.2",
		"mesh":1,
		"translation":[-0.15912269055843354,
		0.1395740658044815,
		1.2856605217476918e-17],
		"scale":[1.0,
		1.0,
		1.0],
		"rotation":[0.0,
		1.0,
		0.0,
		-6.123234262925839e-17]
	},
	{
		"name":"Clothing.1",
		"mesh":2,
		"translation":[0.0666075199842453,
		0.14000843465328217,
		-1.3322675997716858e-17],
		"scale":[1.0,
		1.0,
		1.0],
		"rotation":[0.0,
		1.0,
		0.0,
		-6.123234262925839e-17]
	},
	{
		"name":"Shelf.1",
		"mesh":3,
		"translation":[-0.00005086026794742793,
		0.5649912357330322,
		0.00003120789187960327],
		"scale":[1.0,
		1.0,
		1.0],
		"rotation":[0.0,
		0.0,
		0.0,
		-1.0]
	},
	{
		"name":"Shelf",
		"mesh":4,
		"translation":[-0.00005086026794742793,
		1.708128809928894,
		0.00003120789187960327],
		"scale":[1.0,
		1.0,
		1.0],
		"rotation":[0.0,
		0.0,
		0.0,
		-1.0]
	},
	{
		"name":"Wire Basket_1",
		"translation":[-0.0011000249069184065,
		0.09478969126939774,
		0.0],
		"scale":[1.0,
		1.0,
		1.0],
		"rotation":[0.0,
		0.0,
		0.0,
		-1.0],
		"children":[9,
		10]
	},
	{
		"name":"Wire Basket_2",
		"translation":[-0.0011000249069184065,
		0.3125629425048828,
		0.0],
		"scale":[1.0,
		1.0,
		1.0],
		"rotation":[0.0,
		0.0,
		0.0,
		-1.0],
		"children":[11,
		12]
	},
	{
		"name":"Metal Hanger Bar",
		"mesh":5,
		"translation":[-0.00005086026794742793,
		1.6181614398956299,
		0.00003120789187960327],
		"scale":[1.0,
		1.0,
		1.0],
		"rotation":[0.0,
		0.0,
		0.0,
		-1.0]
	},
	{
		"name":"Wardrobe Base",
		"mesh":6,
		"translation":[-0.00005086026794742793,
		0.9885458946228027,
		0.00003120789187960327],
		"scale":[1.0,
		1.0,
		1.0],
		"rotation":[0.0,
		0.0,
		0.0,
		-1.0]
	},
	{
		"name":"Wire Basket_1-White Mesh",
		"mesh":7
	},
	{
		"name":"Wire Basket_1-Gloss White",
		"mesh":8
	},
	{
		"name":"Wire Basket_2-White Mesh",
		"mesh":9
	},
	{
		"name":"Wire Basket_2-Gloss White",
		"mesh":10
	}],
	"meshes":[{
		"name":"Clothing.3",
		"primitives":[{
			"attributes":{
				"POSITION":1,
				"NORMAL":2,
				"TEXCOORD_0":3
			},
			"indices":0,
			"material":0
		}]
	},
	{
		"name":"Clothing.2",
		"primitives":[{
			"attributes":{
				"POSITION":5,
				"NORMAL":6,
				"TEXCOORD_0":7
			},
			"indices":4,
			"material":1
		}]
	},
	{
		"name":"Clothing.1",
		"primitives":[{
			"attributes":{
				"POSITION":9,
				"NORMAL":10,
				"TEXCOORD_0":11
			},
			"indices":8,
			"material":1
		}]
	},
	{
		"name":"Shelf.1",
		"primitives":[{
			"attributes":{
				"POSITION":13,
				"TEXCOORD_0":14
			},
			"indices":12,
			"material":2
		}]
	},
	{
		"name":"Shelf",
		"primitives":[{
			"attributes":{
				"POSITION":16,
				"TEXCOORD_0":17
			},
			"indices":15,
			"material":2
		}]
	},
	{
		"name":"Metal Hanger Bar",
		"primitives":[{
			"attributes":{
				"POSITION":19,
				"TEXCOORD_0":20
			},
			"indices":18,
			"material":3
		}]
	},
	{
		"name":"Wardrobe Base",
		"primitives":[{
			"attributes":{
				"POSITION":22,
				"TEXCOORD_0":23
			},
			"indices":21,
			"material":2
		}]
	},
	{
		"name":"Wire Basket_1-White Mesh",
		"primitives":[{
			"attributes":{
				"POSITION":25,
				"NORMAL":26,
				"TEXCOORD_0":27
			},
			"indices":24,
			"material":4
		}]
	},
	{
		"name":"Wire Basket_1-Gloss White",
		"primitives":[{
			"attributes":{
				"POSITION":29,
				"NORMAL":30,
				"TEXCOORD_0":31
			},
			"indices":28,
			"material":2
		}]
	},
	{
		"name":"Wire Basket_2-White Mesh",
		"primitives":[{
			"attributes":{
				"POSITION":33,
				"NORMAL":34,
				"TEXCOORD_0":35
			},
			"indices":32,
			"material":4
		}]
	},
	{
		"name":"Wire Basket_2-Gloss White",
		"primitives":[{
			"attributes":{
				"POSITION":37,
				"NORMAL":38,
				"TEXCOORD_0":39
			},
			"indices":36,
			"material":2
		}]
	}],
	"accessors":[{
		"bufferView":0,
		"type":"SCALAR",
		"componentType":5123,
		"count":4878,
		"byteOffset":0,
		"min":[0],
		"max":[1519]
	},
	{
		"bufferView":1,
		"type":"VEC3",
		"componentType":5126,
		"count":1520,
		"byteOffset":0,
		"min":[-0.14919762313365937,
		-0.039181169122457507,
		-0.19218629598617555],
		"max":[0.11868263781070709,
		0.07489730417728424,
		0.19211487472057343]
	},
	{
		"bufferView":1,
		"type":"VEC3",
		"componentType":5126,
		"count":1520,
		"byteOffset":12,
		"min":[-0.9983848333358765,
		-0.9999902248382568,
		-0.9991549253463745],
		"max":[0.9998365640640259,
		0.9999996423721314,
		0.9984011054039002]
	},
	{
		"bufferView":1,
		"type":"VEC2",
		"componentType":5126,
		"count":1520,
		"byteOffset":24,
		"min":[1.357208251953125,
		-5.3017578125],
		"max":[18.58349609375,
		1.86053466796875]
	},
	{
		"bufferView":2,
		"type":"SCALAR",
		"componentType":5123,
		"count":4878,
		"byteOffset":0,
		"min":[0],
		"max":[1519]
	},
	{
		"bufferView":3,
		"type":"VEC3",
		"componentType":5126,
		"count":1520,
		"byteOffset":0,
		"min":[-0.11675699800252915,
		-0.039181169122457507,
		-0.14763665199279786],
		"max":[0.09287700802087784,
		0.07489730417728424,
		0.1475817859172821]
	},
	{
		"bufferView":3,
		"type":"VEC3",
		"componentType":5126,
		"count":1520,
		"byteOffset":12,
		"min":[-0.9988721609115601,
		-0.9999841451644898,
		-0.9993802309036255],
		"max":[0.9998645186424255,
		0.9999994039535523,
		0.9989059567451477]
	},
	{
		"bufferView":3,
		"type":"VEC2",
		"componentType":5126,
		"count":1520,
		"byteOffset":24,
		"min":[1.357208251953125,
		-5.3017578125],
		"max":[18.58349609375,
		1.86053466796875]
	},
	{
		"bufferView":4,
		"type":"SCALAR",
		"componentType":5123,
		"count":4878,
		"byteOffset":0,
		"min":[0],
		"max":[1519]
	},
	{
		"bufferView":5,
		"type":"VEC3",
		"componentType":5126,
		"count":1520,
		"byteOffset":0,
		"min":[-0.14919762313365937,
		-0.039181169122457507,
		-0.16482219099998475],
		"max":[0.11868263781070709,
		0.07489730417728424,
		0.16476094722747804]
	},
	{
		"bufferView":5,
		"type":"VEC3",
		"componentType":5126,
		"count":1520,
		"byteOffset":12,
		"min":[-0.9982689023017883,
		-0.9999902248382568,
		-0.9993805885314941],
		"max":[0.99980628490448,
		0.9999995231628418,
		0.998823881149292]
	},
	{
		"bufferView":5,
		"type":"VEC2",
		"componentType":5126,
		"count":1520,
		"byteOffset":24,
		"min":[1.357208251953125,
		-5.3017578125],
		"max":[18.58349609375,
		1.86053466796875]
	},
	{
		"bufferView":6,
		"type":"SCALAR",
		"componentType":5123,
		"count":36,
		"byteOffset":0,
		"min":[0],
		"max":[19]
	},
	{
		"bufferView":7,
		"type":"VEC3",
		"componentType":5126,
		"count":20,
		"byteOffset":0,
		"min":[-0.30134317278862,
		-0.008857441134750843,
		-0.22814078629016877],
		"max":[0.2686222195625305,
		0.009158114902675152,
		0.23286855220794679]
	},
	{
		"bufferView":7,
		"type":"VEC2",
		"componentType":5126,
		"count":20,
		"byteOffset":12,
		"min":[0.0,
		0.0],
		"max":[1.0,
		1.0]
	},
	{
		"bufferView":8,
		"type":"SCALAR",
		"componentType":5123,
		"count":36,
		"byteOffset":0,
		"min":[0],
		"max":[19]
	},
	{
		"bufferView":9,
		"type":"VEC3",
		"componentType":5126,
		"count":20,
		"byteOffset":0,
		"min":[-0.30134317278862,
		-0.008082559332251549,
		-0.22814078629016877],
		"max":[0.2686222195625305,
		0.009932996705174446,
		0.23286855220794679]
	},
	{
		"bufferView":9,
		"type":"VEC2",
		"componentType":5126,
		"count":20,
		"byteOffset":12,
		"min":[0.0,
		0.0],
		"max":[1.0,
		1.0]
	},
	{
		"bufferView":10,
		"type":"SCALAR",
		"componentType":5123,
		"count":960,
		"byteOffset":0,
		"min":[0],
		"max":[230]
	},
	{
		"bufferView":11,
		"type":"VEC3",
		"componentType":5126,
		"count":231,
		"byteOffset":0,
		"min":[-0.30315902829170229,
		-0.018612440675497056,
		-0.005828523542732],
		"max":[0.27045491337776186,
		0.011799264699220658,
		0.008912281133234501]
	},
	{
		"bufferView":11,
		"type":"VEC2",
		"componentType":5126,
		"count":231,
		"byteOffset":12,
		"min":[0.0,
		0.0],
		"max":[1.0,
		1.0]
	},
	{
		"bufferView":12,
		"type":"SCALAR",
		"componentType":5123,
		"count":216,
		"byteOffset":0,
		"min":[0],
		"max":[119]
	},
	{
		"bufferView":13,
		"type":"VEC3",
		"componentType":5126,
		"count":120,
		"byteOffset":0,
		"min":[-0.3192712962627411,
		-0.9888664484024048,
		-0.22814078629016877],
		"max":[0.2866598963737488,
		1.0115265846252442,
		0.252228707075119]
	},
	{
		"bufferView":13,
		"type":"VEC2",
		"componentType":5126,
		"count":120,
		"byteOffset":12,
		"min":[0.0,
		0.0],
		"max":[1.0,
		1.0]
	},
	{
		"bufferView":14,
		"type":"SCALAR",
		"componentType":5123,
		"count":246,
		"byteOffset":0,
		"min":[0],
		"max":[91]
	},
	{
		"bufferView":15,
		"type":"VEC3",
		"componentType":5126,
		"count":92,
		"byteOffset":0,
		"min":[-0.29064568877220156,
		0.0014583029551431537,
		-0.220964252948761],
		"max":[0.258953720331192,
		0.20180194079875947,
		0.21192561089992524]
	},
	{
		"bufferView":15,
		"type":"VEC3",
		"componentType":5126,
		"count":92,
		"byteOffset":12,
		"min":[-0.9910573363304138,
		-1.0,
		-0.9931197762489319],
		"max":[0.9925880432128906,
		-0.10978412628173828,
		0.9928345084190369]
	},
	{
		"bufferView":15,
		"type":"VEC2",
		"componentType":5126,
		"count":92,
		"byteOffset":24,
		"min":[-4.9568400382995609,
		-9.575162887573243],
		"max":[6.495048999786377,
		1.9703528881072999]
	},
	{
		"bufferView":16,
		"type":"SCALAR",
		"componentType":5123,
		"count":168,
		"byteOffset":0,
		"min":[0],
		"max":[55]
	},
	{
		"bufferView":17,
		"type":"VEC3",
		"componentType":5126,
		"count":56,
		"byteOffset":0,
		"min":[-0.30024099349975588,
		0.20019851624965669,
		-0.23056693375110627],
		"max":[0.2685514986515045,
		0.20180194079875947,
		0.22152556478977204]
	},
	{
		"bufferView":17,
		"type":"VEC3",
		"componentType":5126,
		"count":56,
		"byteOffset":12,
		"min":[-0.13081695139408112,
		-0.9936625361442566,
		-0.13018900156021119],
		"max":[0.13346904516220094,
		-0.9881024360656738,
		0.12856334447860719]
	},
	{
		"bufferView":17,
		"type":"VEC2",
		"componentType":5126,
		"count":56,
		"byteOffset":24,
		"min":[-4.9568400382995609,
		-9.575162887573243],
		"max":[1.3218520879745484,
		-4.58467960357666]
	},
	{
		"bufferView":18,
		"type":"SCALAR",
		"componentType":5123,
		"count":246,
		"byteOffset":0,
		"min":[0],
		"max":[91]
	},
	{
		"bufferView":19,
		"type":"VEC3",
		"componentType":5126,
		"count":92,
		"byteOffset":0,
		"min":[-0.29064568877220156,
		0.0014583029551431537,
		-0.220964252948761],
		"max":[0.258953720331192,
		0.20180194079875947,
		0.21192561089992524]
	},
	{
		"bufferView":19,
		"type":"VEC3",
		"componentType":5126,
		"count":92,
		"byteOffset":12,
		"min":[-0.9910573363304138,
		-1.0,
		-0.9931197762489319],
		"max":[0.9925880432128906,
		-0.10978412628173828,
		0.9928345084190369]
	},
	{
		"bufferView":19,
		"type":"VEC2",
		"componentType":5126,
		"count":92,
		"byteOffset":24,
		"min":[-4.9568400382995609,
		-9.575162887573243],
		"max":[6.495048999786377,
		1.9703528881072999]
	},
	{
		"bufferView":20,
		"type":"SCALAR",
		"componentType":5123,
		"count":168,
		"byteOffset":0,
		"min":[0],
		"max":[55]
	},
	{
		"bufferView":21,
		"type":"VEC3",
		"componentType":5126,
		"count":56,
		"byteOffset":0,
		"min":[-0.30024099349975588,
		0.20019851624965669,
		-0.23056693375110627],
		"max":[0.2685514986515045,
		0.20180194079875947,
		0.22152556478977204]
	},
	{
		"bufferView":21,
		"type":"VEC3",
		"componentType":5126,
		"count":56,
		"byteOffset":12,
		"min":[-0.13081695139408112,
		-0.9936625361442566,
		-0.13018900156021119],
		"max":[0.13346904516220094,
		-0.9881024360656738,
		0.12856334447860719]
	},
	{
		"bufferView":21,
		"type":"VEC2",
		"componentType":5126,
		"count":56,
		"byteOffset":24,
		"min":[-4.9568400382995609,
		-9.575162887573243],
		"max":[1.3218520879745484,
		-4.58467960357666]
	}],
	"bufferViews":[{
		"buffer":0,
		"byteOffset":0,
		"byteLength":9756,
		"target":34963
	},
	{
		"buffer":0,
		"byteOffset":9756,
		"byteLength":48640,
		"target":34962,
		"byteStride":32
	},
	{
		"buffer":1,
		"byteOffset":0,
		"byteLength":9756,
		"target":34963
	},
	{
		"buffer":1,
		"byteOffset":9756,
		"byteLength":48640,
		"target":34962,
		"byteStride":32
	},
	{
		"buffer":2,
		"byteOffset":0,
		"byteLength":9756,
		"target":34963
	},
	{
		"buffer":2,
		"byteOffset":9756,
		"byteLength":48640,
		"target":34962,
		"byteStride":32
	},
	{
		"buffer":3,
		"byteOffset":0,
		"byteLength":72,
		"target":34963
	},
	{
		"buffer":3,
		"byteOffset":72,
		"byteLength":400,
		"target":34962,
		"byteStride":20
	},
	{
		"buffer":4,
		"byteOffset":0,
		"byteLength":72,
		"target":34963
	},
	{
		"buffer":4,
		"byteOffset":72,
		"byteLength":400,
		"target":34962,
		"byteStride":20
	},
	{
		"buffer":5,
		"byteOffset":0,
		"byteLength":1920,
		"target":34963
	},
	{
		"buffer":5,
		"byteOffset":1920,
		"byteLength":4620,
		"target":34962,
		"byteStride":20
	},
	{
		"buffer":6,
		"byteOffset":0,
		"byteLength":432,
		"target":34963
	},
	{
		"buffer":6,
		"byteOffset":432,
		"byteLength":2400,
		"target":34962,
		"byteStride":20
	},
	{
		"buffer":7,
		"byteOffset":0,
		"byteLength":492,
		"target":34963
	},
	{
		"buffer":7,
		"byteOffset":492,
		"byteLength":2944,
		"target":34962,
		"byteStride":32
	},
	{
		"buffer":8,
		"byteOffset":0,
		"byteLength":336,
		"target":34963
	},
	{
		"buffer":8,
		"byteOffset":336,
		"byteLength":1792,
		"target":34962,
		"byteStride":32
	},
	{
		"buffer":9,
		"byteOffset":0,
		"byteLength":492,
		"target":34963
	},
	{
		"buffer":9,
		"byteOffset":492,
		"byteLength":2944,
		"target":34962,
		"byteStride":32
	},
	{
		"buffer":10,
		"byteOffset":0,
		"byteLength":336,
		"target":34963
	},
	{
		"buffer":10,
		"byteOffset":336,
		"byteLength":1792,
		"target":34962,
		"byteStride":32
	}],
	"buffers":[{
		"uri":"data:application/octet-stream;base64,",
		"byteLength":58396
	},
	{
		"uri":"data:application/octet-stream;base64,",
		"byteLength":58396
	},
	{
		"uri":"data:application/octet-stream;base64,",
		"byteLength":58396
	},
	{
		"uri":"data:application/octet-stream;base64,",
		"byteLength":472
	},
	{
		"uri":"data:application/octet-stream;base64,",
		"byteLength":472
	},
	{
		"uri":"data:application/octet-stream;base64,",
		"byteLength":6540
	},
	{
		"uri":"data:application/octet-stream;base64,",
		"byteLength":2832
	},
	{
		"uri":"data:application/octet-stream;base64,",
		"byteLength":3436
	},
	{
		"uri":"data:application/octet-stream;base64,",
		"byteLength":2128
	},
	{
		"uri":"data:application/octet-stream;base64,",
		"byteLength":3436
	},
	{
		"uri":"data:application/octet-stream;base64,",
		"byteLength":2128
	}],
	"images":[{
		"uri":"data:image/png;base64,"
	},
	{
		"uri":"data:image/png;base64,"
	},
	{
		"uri":"data:image/png;base64,"
	},
	{
		"uri":"data:image/png;base64,"
	}],
	"samplers":[{
		"magFilter":9729,
		"minFilter":9729,
		"wrapS":10497,
		"wrapT":10497
	},
	{
		"magFilter":9729,
		"minFilter":9729,
		"wrapS":10497,
		"wrapT":10497
	},
	{
		"magFilter":9729,
		"minFilter":9729,
		"wrapS":10497,
		"wrapT":10497
	},
	{
		"magFilter":9729,
		"minFilter":9729,
		"wrapS":10497,
		"wrapT":10497
	},
	{
		"magFilter":9729,
		"minFilter":9729,
		"wrapS":10497,
		"wrapT":10497
	}],
	"textures":[{
		"sampler":0,
		"source":0
	},
	{
		"sampler":1,
		"source":1
	},
	{
		"sampler":2,
		"source":2
	},
	{
		"sampler":3,
		"source":1
	},
	{
		"sampler":4,
		"source":3
	}],
	"materials":[{
		"pbrMetallicRoughness":{
			"baseColorTexture":{
				"index":0
			},
			"baseColorFactor":[1.0,
			1.0,
			1.0,
			1.0],
			"metallicFactor":0.0,
			"roughnessFactor":0.34
		},
		"normalTexture":{
			"index":1,
			"scale":0.25
		},
		"emissiveFactor":[0.0,
		0.0,
		0.0],
		"alphaMode":"OPAQUE",
		"doubleSided":true,
		"name":"Clothing"
	},
	{
		"pbrMetallicRoughness":{
			"baseColorTexture":{
				"index":2
			},
			"baseColorFactor":[1.0,
			1.0,
			1.0,
			1.0],
			"metallicFactor":0.0,
			"roughnessFactor":0.34
		},
		"normalTexture":{
			"index":3,
			"scale":0.25
		},
		"emissiveFactor":[0.0,
		0.0,
		0.0],
		"alphaMode":"OPAQUE",
		"doubleSided":true,
		"name":"Clothing_2"
	},
	{
		"pbrMetallicRoughness":{
			"baseColorFactor":[0.8,
			0.8,
			0.8,
			1.0],
			"metallicFactor":0.0,
			"roughnessFactor":0.34
		},
		"emissiveFactor":[0.0,
		0.0,
		0.0],
		"alphaMode":"OPAQUE",
		"doubleSided":true,
		"name":"Gloss White"
	},
	{
		"pbrMetallicRoughness":{
			"baseColorFactor":[0.6900000000000001,
			0.6900000000000001,
			0.6900000000000001,
			1.0],
			"metallicFactor":0.0,
			"roughnessFactor":0.67
		},
		"emissiveFactor":[0.0,
		0.0,
		0.0],
		"alphaMode":"OPAQUE",
		"doubleSided":true,
		"name":"Metal"
	},
	{
		"pbrMetallicRoughness":{
			"baseColorTexture":{
				"index":4
			},
			"baseColorFactor":[0.8,
			0.8,
			0.8,
			1.0],
			"metallicFactor":0.0,
			"roughnessFactor":0.5
		},
		"emissiveFactor":[0.0,
		0.0,
		0.0],
		"alphaMode":"BLEND",
		"doubleSided":true,
		"name":"White Mesh"
	}]
}