{
	"bufferViews":[{
		"buffer":0,
		"byteOffset":0,
		"byteLength":72,
		"target":34963
	},
	{
		"buffer":0,
		"byteOffset":72,
		"byteLength":400,
		"target":34962,
		"byteStride":20
	},
	{
		"buffer":1,
		"byteOffset":0,
		"byteLength":72,
		"target":34963
	},
	{
		"buffer":1,
		"byteOffset":72,
		"byteLength":400,
		"target":34962,
		"byteStride":20
	},
	{
		"buffer":2,
		"byteOffset":0,
		"byteLength":1920,
		"target":34963
	},
	{
		"buffer":2,
		"byteOffset":1920,
		"byteLength":4620,
		"target":34962,
		"byteStride":20
	},
	{
		"buffer":3,
		"byteOffset":0,
		"byteLength":432,
		"target":34963
	},
	{
		"buffer":3,
		"byteOffset":432,
		"byteLength":2400,
		"target":34962,
		"byteStride":20
	},
	{
		"buffer":4,
		"byteOffset":0,
		"byteLength":492,
		"target":34963
	},
	{
		"buffer":4,
		"byteOffset":492,
		"byteLength":2944,
		"target":34962,
		"byteStride":32
	},
	{
		"buffer":5,
		"byteOffset":0,
		"byteLength":336,
		"target":34963
	},
	{
		"buffer":5,
		"byteOffset":336,
		"byteLength":1792,
		"target":34962,
		"byteStride":32
	},
	{
		"buffer":6,
		"byteOffset":0,
		"byteLength":492,
		"target":34963
	},
	{
		"buffer":6,
		"byteOffset":492,
		"byteLength":2944,
		"target":34962,
		"byteStride":32
	},
	{
		"buffer":7,
		"byteOffset":0,
		"byteLength":336,
		"target":34963
	},
	{
		"buffer":7,
		"byteOffset":336,
		"byteLength":1792,
		"target":34962,
		"byteStride":32
	}],
	"asset":{
		"version":"2.0",
		"generator":"Maxon Cinema 4D 2025.1.1 (#200000219)"
	},
	"scenes":[{
		"nodes":[0,
		1,
		2,
		3,
		4,
		5]
	}],
	"nodes":[{
		"name":"Shelf",
		"mesh":0,
		"translation":[-0.00005086026794742793,
		0.5649912357330322,
		0.00003120789187960327],
		"rotation":[0.0,
		0.0,
		0.0,
		-1.0],
		"scale":[1.0,
		1.0,
		1.0]
	},
	{
		"name":"Shelf",
		"mesh":1,
		"translation":[-0.00005086026794742793,
		1.708128809928894,
		0.00003120789187960327],
		"rotation":[0.0,
		0.0,
		0.0,
		-1.0],
		"scale":[1.0,
		1.0,
		1.0]
	},
	{
		"name":"Wire Basket_1",
		"translation":[-0.0011000249069184065,
		0.09478969126939774,
		0.0],
		"rotation":[0.0,
		0.0,
		0.0,
		-1.0],
		"scale":[1.0,
		1.0,
		1.0],
		"children":[6,
		7]
	},
	{
		"name":"Wire Basket_2",
		"translation":[-0.0011000249069184065,
		0.3125629425048828,
		0.0],
		"rotation":[0.0,
		0.0,
		0.0,
		-1.0],
		"scale":[1.0,
		1.0,
		1.0],
		"children":[8,
		9]
	},
	{
		"name":"Metal Hanger Bar",
		"mesh":2,
		"translation":[-0.00005086026794742793,
		1.6181614398956299,
		0.00003120789187960327],
		"rotation":[0.0,
		0.0,
		0.0,
		-1.0],
		"scale":[1.0,
		1.0,
		1.0]
	},
	{
		"name":"Wardrobe Base",
		"mesh":3,
		"translation":[-0.00005086026794742793,
		0.9885458946228027,
		0.00003120789187960327],
		"rotation":[0.0,
		0.0,
		0.0,
		-1.0],
		"scale":[1.0,
		1.0,
		1.0]
	},
	{
		"name":"Wire Basket_1-White Mesh",
		"mesh":4
	},
	{
		"name":"Wire Basket_1-Gloss White",
		"mesh":5
	},
	{
		"name":"Wire Basket_2-White Mesh",
		"mesh":6
	},
	{
		"name":"Wire Basket_2-Gloss White",
		"mesh":7
	}],
	"meshes":[{
		"name":"Shelf",
		"primitives":[{
			"attributes":{
				"POSITION":1,
				"TEXCOORD_0":2
			},
			"indices":0,
			"material":0
		}]
	},
	{
		"name":"Shelf",
		"primitives":[{
			"attributes":{
				"POSITION":4,
				"TEXCOORD_0":5
			},
			"indices":3,
			"material":0
		}]
	},
	{
		"name":"Metal Hanger Bar",
		"primitives":[{
			"attributes":{
				"POSITION":7,
				"TEXCOORD_0":8
			},
			"indices":6,
			"material":1
		}]
	},
	{
		"name":"Wardrobe Base",
		"primitives":[{
			"attributes":{
				"POSITION":10,
				"TEXCOORD_0":11
			},
			"indices":9,
			"material":0
		}]
	},
	{
		"name":"Wire Basket_1-White Mesh",
		"primitives":[{
			"attributes":{
				"POSITION":13,
				"NORMAL":14,
				"TEXCOORD_0":15
			},
			"indices":12,
			"material":2
		}]
	},
	{
		"name":"Wire Basket_1-Gloss White",
		"primitives":[{
			"attributes":{
				"POSITION":17,
				"NORMAL":18,
				"TEXCOORD_0":19
			},
			"indices":16,
			"material":0
		}]
	},
	{
		"name":"Wire Basket_2-White Mesh",
		"primitives":[{
			"attributes":{
				"POSITION":21,
				"NORMAL":22,
				"TEXCOORD_0":23
			},
			"indices":20,
			"material":2
		}]
	},
	{
		"name":"Wire Basket_2-Gloss White",
		"primitives":[{
			"attributes":{
				"POSITION":25,
				"NORMAL":26,
				"TEXCOORD_0":27
			},
			"indices":24,
			"material":0
		}]
	}],
	"accessors":[{
		"bufferView":0,
		"type":"SCALAR",
		"componentType":5123,
		"max":[19],
		"count":36,
		"byteOffset":0,
		"min":[0]
	},
	{
		"bufferView":1,
		"type":"VEC3",
		"componentType":5126,
		"max":[0.2686222195625305,
		0.009158114902675152,
		0.23286855220794679],
		"count":20,
		"byteOffset":0,
		"min":[-0.30134317278862,
		-0.008857441134750843,
		-0.22814078629016877]
	},
	{
		"bufferView":1,
		"type":"VEC2",
		"componentType":5126,
		"max":[1.0,
		1.0],
		"count":20,
		"byteOffset":12,
		"min":[0.0,
		0.0]
	},
	{
		"bufferView":2,
		"type":"SCALAR",
		"componentType":5123,
		"max":[19],
		"count":36,
		"byteOffset":0,
		"min":[0]
	},
	{
		"bufferView":3,
		"type":"VEC3",
		"componentType":5126,
		"max":[0.2686222195625305,
		0.009932996705174446,
		0.23286855220794679],
		"count":20,
		"byteOffset":0,
		"min":[-0.30134317278862,
		-0.008082559332251549,
		-0.22814078629016877]
	},
	{
		"bufferView":3,
		"type":"VEC2",
		"componentType":5126,
		"max":[1.0,
		1.0],
		"count":20,
		"byteOffset":12,
		"min":[0.0,
		0.0]
	},
	{
		"bufferView":4,
		"type":"SCALAR",
		"componentType":5123,
		"max":[230],
		"count":960,
		"byteOffset":0,
		"min":[0]
	},
	{
		"bufferView":5,
		"type":"VEC3",
		"componentType":5126,
		"max":[0.27045491337776186,
		0.011799264699220658,
		0.008912281133234501],
		"count":231,
		"byteOffset":0,
		"min":[-0.30315902829170229,
		-0.018612440675497056,
		-0.005828523542732]
	},
	{
		"bufferView":5,
		"type":"VEC2",
		"componentType":5126,
		"max":[1.0,
		1.0],
		"count":231,
		"byteOffset":12,
		"min":[0.0,
		0.0]
	},
	{
		"bufferView":6,
		"type":"SCALAR",
		"componentType":5123,
		"max":[119],
		"count":216,
		"byteOffset":0,
		"min":[0]
	},
	{
		"bufferView":7,
		"type":"VEC3",
		"componentType":5126,
		"max":[0.2866598963737488,
		1.0115265846252442,
		0.252228707075119],
		"count":120,
		"byteOffset":0,
		"min":[-0.3192712962627411,
		-0.9888664484024048,
		-0.22814078629016877]
	},
	{
		"bufferView":7,
		"type":"VEC2",
		"componentType":5126,
		"max":[1.0,
		1.0],
		"count":120,
		"byteOffset":12,
		"min":[0.0,
		0.0]
	},
	{
		"bufferView":8,
		"type":"SCALAR",
		"componentType":5123,
		"max":[91],
		"count":246,
		"byteOffset":0,
		"min":[0]
	},
	{
		"bufferView":9,
		"type":"VEC3",
		"componentType":5126,
		"max":[0.258953720331192,
		0.20180194079875947,
		0.21192561089992524],
		"count":92,
		"byteOffset":0,
		"min":[-0.29064568877220156,
		0.0014583029551431537,
		-0.220964252948761]
	},
	{
		"bufferView":9,
		"type":"VEC3",
		"componentType":5126,
		"max":[0.9925880432128906,
		-0.10978412628173828,
		0.9928345084190369],
		"count":92,
		"byteOffset":12,
		"min":[-0.9910573363304138,
		-1.0,
		-0.9931197762489319]
	},
	{
		"bufferView":9,
		"type":"VEC2",
		"componentType":5126,
		"max":[6.495048999786377,
		1.9703528881072999],
		"count":92,
		"byteOffset":24,
		"min":[-4.9568400382995609,
		-9.575162887573243]
	},
	{
		"bufferView":10,
		"type":"SCALAR",
		"componentType":5123,
		"max":[55],
		"count":168,
		"byteOffset":0,
		"min":[0]
	},
	{
		"bufferView":11,
		"type":"VEC3",
		"componentType":5126,
		"max":[0.2685514986515045,
		0.20180194079875947,
		0.22152556478977204],
		"count":56,
		"byteOffset":0,
		"min":[-0.30024099349975588,
		0.20019851624965669,
		-0.23056693375110627]
	},
	{
		"bufferView":11,
		"type":"VEC3",
		"componentType":5126,
		"max":[0.13346904516220094,
		-0.9881024360656738,
		0.12856334447860719],
		"count":56,
		"byteOffset":12,
		"min":[-0.13081695139408112,
		-0.9936625361442566,
		-0.13018900156021119]
	},
	{
		"bufferView":11,
		"type":"VEC2",
		"componentType":5126,
		"max":[1.3218520879745484,
		-4.58467960357666],
		"count":56,
		"byteOffset":24,
		"min":[-4.9568400382995609,
		-9.575162887573243]
	},
	{
		"bufferView":12,
		"type":"SCALAR",
		"componentType":5123,
		"max":[91],
		"count":246,
		"byteOffset":0,
		"min":[0]
	},
	{
		"bufferView":13,
		"type":"VEC3",
		"componentType":5126,
		"max":[0.258953720331192,
		0.20180194079875947,
		0.21192561089992524],
		"count":92,
		"byteOffset":0,
		"min":[-0.29064568877220156,
		0.0014583029551431537,
		-0.220964252948761]
	},
	{
		"bufferView":13,
		"type":"VEC3",
		"componentType":5126,
		"max":[0.9925880432128906,
		-0.10978412628173828,
		0.9928345084190369],
		"count":92,
		"byteOffset":12,
		"min":[-0.9910573363304138,
		-1.0,
		-0.9931197762489319]
	},
	{
		"bufferView":13,
		"type":"VEC2",
		"componentType":5126,
		"max":[6.495048999786377,
		1.9703528881072999],
		"count":92,
		"byteOffset":24,
		"min":[-4.9568400382995609,
		-9.575162887573243]
	},
	{
		"bufferView":14,
		"type":"SCALAR",
		"componentType":5123,
		"max":[55],
		"count":168,
		"byteOffset":0,
		"min":[0]
	},
	{
		"bufferView":15,
		"type":"VEC3",
		"componentType":5126,
		"max":[0.2685514986515045,
		0.20180194079875947,
		0.22152556478977204],
		"count":56,
		"byteOffset":0,
		"min":[-0.30024099349975588,
		0.20019851624965669,
		-0.23056693375110627]
	},
	{
		"bufferView":15,
		"type":"VEC3",
		"componentType":5126,
		"max":[0.13346904516220094,
		-0.9881024360656738,
		0.12856334447860719],
		"count":56,
		"byteOffset":12,
		"min":[-0.13081695139408112,
		-0.9936625361442566,
		-0.13018900156021119]
	},
	{
		"bufferView":15,
		"type":"VEC2",
		"componentType":5126,
		"max":[1.3218520879745484,
		-4.58467960357666],
		"count":56,
		"byteOffset":24,
		"min":[-4.9568400382995609,
		-9.575162887573243]
	}],
	"buffers":[{
		"uri":"data:application/octet-stream;base64,",
		"byteLength":472
	},
	{
		"uri":"data:application/octet-stream;base64,",
		"byteLength":472
	},
	{
		"uri":"data:application/octet-stream;base64,",
		"byteLength":6540
	},
	{
		"uri":"data:application/octet-stream;base64,",
		"byteLength":2832
	},
	{
		"uri":"data:application/octet-stream;base64,",
		"byteLength":3436
	},
	{
		"uri":"data:application/octet-stream;base64,",
		"byteLength":2128
	},
	{
		"uri":"data:application/octet-stream;base64,",
		"byteLength":3436
	},
	{
		"uri":"data:application/octet-stream;base64,",
		"byteLength":2128
	}],
	"images":[{
		"uri":"data:image/png;base64,"
	}],
	"samplers":[{
		"magFilter":9729,
		"minFilter":9729,
		"wrapS":10497,
		"wrapT":10497
	}],
	"textures":[{
		"sampler":0,
		"source":0
	}],
	"materials":[{
		"pbrMetallicRoughness":{
			"baseColorFactor":[0.8,
			0.8,
			0.8,
			1.0],
			"metallicFactor":0.0,
			"roughnessFactor":0.34
		},
		"emissiveFactor":[0.0,
		0.0,
		0.0],
		"alphaMode":"OPAQUE",
		"doubleSided":true,
		"name":"Gloss White"
	},
	{
		"pbrMetallicRoughness":{
			"baseColorFactor":[0.6900000000000001,
			0.6900000000000001,
			0.6900000000000001,
			1.0],
			"metallicFactor":0.0,
			"roughnessFactor":0.67
		},
		"emissiveFactor":[0.0,
		0.0,
		0.0],
		"alphaMode":"OPAQUE",
		"doubleSided":true,
		"name":"Metal"
	},
	{
		"pbrMetallicRoughness":{
			"baseColorTexture":{
				"index":0
			},
			"baseColorFactor":[0.8,
			0.8,
			0.8,
			1.0],
			"metallicFactor":0.0,
			"roughnessFactor":0.5
		},
		"emissiveFactor":[0.0,
		0.0,
		0.0],
		"alphaMode":"BLEND",
		"doubleSided":true,
		"name":"White Mesh"
	}]
}