{
	"bufferViews":[{
		"buffer":0,
		"byteOffset":0,
		"byteLength":1920,
		"target":34963
	},
	{
		"buffer":0,
		"byteOffset":1920,
		"byteLength":7392,
		"target":34962,
		"byteStride":32
	},
	{
		"buffer":1,
		"byteOffset":0,
		"byteLength":576,
		"target":34963
	},
	{
		"buffer":1,
		"byteOffset":576,
		"byteLength":6144,
		"target":34962,
		"byteStride":32
	}],
	"asset":{
		"version":"2.0",
		"generator":"Maxon Cinema 4D 2025.1.1 (#200000219)"
	},
	"scenes":[{
		"nodes":[0]
	}],
	"nodes":[{
		"name":"Bundle_3_01685",
		"translation":[0.016352051869034768,
		0.9885458946228027,
		0.010856781154870987],
		"rotation":[0.0,
		0.0,
		0.0,
		-1.0],
		"scale":[1.0,
		1.0,
		1.0],
		"children":[1,
		2]
	},
	{
		"name":"Bundle_3_01685-Metal",
		"mesh":0
	},
	{
		"name":"Bundle_3_01685-Gloss White",
		"mesh":1
	}],
	"meshes":[{
		"name":"Bundle_3_01685-Metal",
		"primitives":[{
			"attributes":{
				"POSITION":1,
				"NORMAL":2,
				"TEXCOORD_0":3
			},
			"indices":0,
			"material":0
		}]
	},
	{
		"name":"Bundle_3_01685-Gloss White",
		"primitives":[{
			"attributes":{
				"POSITION":5,
				"NORMAL":6,
				"TEXCOORD_0":7
			},
			"indices":4,
			"material":1
		}]
	}],
	"accessors":[{
		"bufferView":0,
		"type":"SCALAR",
		"componentType":5123,
		"max":[230],
		"count":960,
		"byteOffset":0,
		"min":[0]
	},
	{
		"bufferView":1,
		"type":"VEC3",
		"componentType":5126,
		"max":[0.30315902829170229,
		0.6414148211479187,
		0.008912281133234501],
		"count":231,
		"byteOffset":0,
		"min":[-0.27045491337776186,
		0.6110031604766846,
		-0.005828523542732]
	},
	{
		"bufferView":1,
		"type":"VEC3",
		"componentType":5126,
		"max":[1.0,
		1.0,
		0.9996303915977478],
		"count":231,
		"byteOffset":12,
		"min":[-1.0,
		-1.0,
		-0.9996303915977478]
	},
	{
		"bufferView":1,
		"type":"VEC2",
		"componentType":5126,
		"max":[1.0,
		1.0],
		"count":231,
		"byteOffset":24,
		"min":[0.000030517578125,
		0.000030517578125]
	},
	{
		"bufferView":2,
		"type":"SCALAR",
		"componentType":5123,
		"max":[191],
		"count":288,
		"byteOffset":0,
		"min":[0]
	},
	{
		"bufferView":3,
		"type":"VEC3",
		"componentType":5126,
		"max":[0.3192712962627411,
		1.0115265846252442,
		0.252228707075119],
		"count":192,
		"byteOffset":0,
		"min":[-0.2866598963737488,
		-0.9888664484024048,
		-0.22814078629016877]
	},
	{
		"bufferView":3,
		"type":"VEC3",
		"componentType":5126,
		"max":[1.0,
		1.0,
		1.0],
		"count":192,
		"byteOffset":12,
		"min":[-1.0,
		-1.0,
		-1.0]
	},
	{
		"bufferView":3,
		"type":"VEC2",
		"componentType":5126,
		"max":[1.0,
		1.0],
		"count":192,
		"byteOffset":24,
		"min":[0.000030517578125,
		0.000030517578125]
	}],
	"buffers":[{
		"uri":"data:application/octet-stream;base64,",
		"byteLength":9312
	},
	{
		"uri":"data:application/octet-stream;base64,",
		"byteLength":6720
	}],
	"materials":[{
		"pbrMetallicRoughness":{
			"baseColorFactor":[0.6900000000000001,
			0.6900000000000001,
			0.6900000000000001,
			1.0],
			"metallicFactor":0.0,
			"roughnessFactor":0.67
		},
		"emissiveFactor":[0.0,
		0.0,
		0.0],
		"alphaMode":"OPAQUE",
		"doubleSided":true,
		"name":"Metal"
	},
	{
		"pbrMetallicRoughness":{
			"baseColorFactor":[0.8,
			0.8,
			0.8,
			1.0],
			"metallicFactor":0.0,
			"roughnessFactor":0.34
		},
		"emissiveFactor":[0.0,
		0.0,
		0.0],
		"alphaMode":"OPAQUE",
		"doubleSided":true,
		"name":"Gloss White"
	}]
}