{
	"asset":{
		"version":"2.0",
		"generator":"Maxon Cinema 4D 2025.1.1 (#200000219)"
	},
	"scenes":[{
		"nodes":[0]
	}],
	"nodes":[{
		"name":"Null.1",
		"translation":[-0.0004887114046141505,
		0.8250895142555237,
		0.010167638771235943],
		"rotation":[0.0,
		0.0,
		0.0,
		-1.0],
		"scale":[1.0,
		1.0,
		1.0],
		"children":[1,
		2]
	},
	{
		"name":"Null.1-Gloss White",
		"mesh":0
	},
	{
		"name":"Null.1-MDF",
		"mesh":1
	}],
	"meshes":[{
		"name":"Null.1-Gloss White",
		"primitives":[{
			"attributes":{
				"POSITION":1
			},
			"indices":0,
			"material":0
		}]
	},
	{
		"name":"Null.1-MDF",
		"primitives":[{
			"attributes":{
				"POSITION":3
			},
			"indices":2,
			"material":1
		}]
	}],
	"accessors":[{
		"bufferView":0,
		"type":"SCALAR",
		"componentType":5123,
		"count":894,
		"byteOffset":0,
		"min":[0],
		"max":[199]
	},
	{
		"bufferView":1,
		"type":"VEC3",
		"componentType":5126,
		"count":200,
		"byteOffset":0,
		"min":[-0.30297768115997317,
		-0.8250570297241211,
		-0.24890832602977754],
		"max":[0.3040573000907898,
		1.175567626953125,
		0.2310340851545334]
	},
	{
		"bufferView":2,
		"type":"SCALAR",
		"componentType":5123,
		"count":6,
		"byteOffset":0,
		"min":[0],
		"max":[3]
	},
	{
		"bufferView":3,
		"type":"VEC3",
		"componentType":5126,
		"count":4,
		"byteOffset":0,
		"min":[-0.28273624181747439,
		-0.8250570297241211,
		0.2310226559638977],
		"max":[0.2837750017642975,
		1.1751497983932496,
		0.2310226559638977]
	}],
	"bufferViews":[{
		"buffer":0,
		"target":34963,
		"byteOffset":0,
		"byteLength":1788
	},
	{
		"buffer":0,
		"target":34962,
		"byteOffset":1788,
		"byteLength":2400
	},
	{
		"buffer":1,
		"target":34963,
		"byteOffset":0,
		"byteLength":12
	},
	{
		"buffer":1,
		"target":34962,
		"byteOffset":12,
		"byteLength":48
	}],
	"buffers":[{
		"uri":"data:application/octet-stream;base64,",
		"byteLength":4188
	},
	{
		"uri":"data:application/octet-stream;base64,",
		"byteLength":60
	}],
	"images":[{
		"uri":"data:image/jpeg;base64,"
	}],
	"samplers":[{
		"magFilter":9729,
		"minFilter":9729,
		"wrapS":10497,
		"wrapT":10497
	}],
	"textures":[{
		"sampler":0,
		"source":0
	}],
	"materials":[{
		"pbrMetallicRoughness":{
			"baseColorFactor":[0.8,
			0.8,
			0.8,
			1.0],
			"metallicFactor":0.0,
			"roughnessFactor":0.18
		},
		"emissiveFactor":[0.0,
		0.0,
		0.0],
		"alphaMode":"OPAQUE",
		"doubleSided":false,
		"name":"Gloss White"
	},
	{
		"pbrMetallicRoughness":{
			"baseColorTexture":{
				"index":0
			},
			"baseColorFactor":[1.0,
			1.0,
			1.0,
			1.0],
			"metallicFactor":0.0,
			"roughnessFactor":0.5
		},
		"emissiveFactor":[0.0,
		0.0,
		0.0],
		"alphaMode":"OPAQUE",
		"doubleSided":false,
		"name":"MDF"
	}]
}