{
	"bufferViews":[{
		"buffer":0,
		"byteOffset":0,
		"byteLength":2016,
		"target":34963
	},
	{
		"buffer":0,
		"byteOffset":2016,
		"byteLength":21504,
		"target":34962,
		"byteStride":32
	}],
	"asset":{
		"version":"2.0",
		"generator":"Maxon Cinema 4D 2025.1.1 (#200000219)"
	},
	"scenes":[{
		"nodes":[0,
		1,
		2]
	}],
	"nodes":[{
		"name":"Bundle_3_01685",
		"translation":[0.016352051869034768,
		0.9885458946228027,
		0.010856781154870987],
		"rotation":[0.0,
		0.0,
		0.0,
		-1.0],
		"scale":[1.0,
		1.0,
		1.0]
	},
	{
		"name":"Bundle_2_04141",
		"translation":[-0.023381151258945466,
		0.8580418229103088,
		0.018918637186288835],
		"rotation":[0.0,
		1.2246468525851679e-16,
		0.0,
		-1.0],
		"scale":[1.0,
		1.0,
		1.0]
	},
	{
		"name":"Bundle_3_04142",
		"mesh":0,
		"translation":[-0.016352051869034768,
		0.9885458946228027,
		0.02965150587260723],
		"rotation":[0.0,
		1.0,
		0.0,
		-6.123234262925839e-17],
		"scale":[1.0,
		1.0,
		1.0]
	}],
	"meshes":[{
		"name":"Bundle_3_04142",
		"primitives":[{
			"attributes":{
				"POSITION":1,
				"NORMAL":2,
				"TEXCOORD_0":3
			},
			"indices":0,
			"material":0
		}]
	}],
	"accessors":[{
		"bufferView":0,
		"type":"SCALAR",
		"componentType":5123,
		"max":[671],
		"count":1008,
		"byteOffset":0,
		"min":[0]
	},
	{
		"bufferView":1,
		"type":"VEC3",
		"componentType":5126,
		"max":[0.23657196760177613,
		0.5998897552490234,
		0.22661082446575166],
		"count":672,
		"byteOffset":0,
		"min":[-0.2694777548313141,
		-0.9888479709625244,
		-0.17305496335029603]
	},
	{
		"bufferView":1,
		"type":"VEC3",
		"componentType":5126,
		"max":[1.0,
		1.0,
		1.0],
		"count":672,
		"byteOffset":12,
		"min":[-1.0,
		-1.0,
		-1.0]
	},
	{
		"bufferView":1,
		"type":"VEC2",
		"componentType":5126,
		"max":[1.0,
		1.0],
		"count":672,
		"byteOffset":24,
		"min":[0.000030517578125,
		0.000030517578125]
	}],
	"buffers":[{
		"uri":"data:application/octet-stream;base64,",
		"byteLength":23520
	}],
	"materials":[{
		"pbrMetallicRoughness":{
			"baseColorFactor":[0.8,
			0.8,
			0.8,
			1.0],
			"metallicFactor":0.0,
			"roughnessFactor":0.34
		},
		"emissiveFactor":[0.0,
		0.0,
		0.0],
		"alphaMode":"OPAQUE",
		"doubleSided":true,
		"name":"Gloss White"
	}]
}