{
	"bufferViews":[{
		"buffer":0,
		"byteOffset":0,
		"byteLength":132,
		"target":34963
	},
	{
		"buffer":0,
		"byteOffset":132,
		"byteLength":1408,
		"target":34962,
		"byteStride":32
	},
	{
		"buffer":1,
		"byteOffset":0,
		"byteLength":1884,
		"target":34963
	},
	{
		"buffer":1,
		"byteOffset":1884,
		"byteLength":20096,
		"target":34962,
		"byteStride":32
	}],
	"asset":{
		"version":"2.0",
		"generator":"Maxon Cinema 4D 2025.1.1 (#200000219)"
	},
	"scenes":[{
		"nodes":[0,
		1,
		2]
	}],
	"nodes":[{
		"name":"Bundle_3_01685",
		"translation":[0.016352051869034768,
		0.9885458946228027,
		0.010856781154870987],
		"rotation":[0.0,
		0.0,
		0.0,
		-1.0],
		"scale":[1.0,
		1.0,
		1.0]
	},
	{
		"name":"Bundle_2_04141",
		"translation":[-0.023381151258945466,
		0.8580418229103088,
		0.018918637186288835],
		"rotation":[0.0,
		1.2246468525851679e-16,
		0.0,
		-1.0],
		"scale":[1.0,
		1.0,
		1.0]
	},
	{
		"name":"Bundle_4_04143",
		"translation":[-0.01349569857120514,
		0.9885458946228027,
		0.03017084300518036],
		"rotation":[0.0,
		1.2246468525851679e-16,
		0.0,
		-1.0],
		"scale":[1.0,
		1.0,
		1.0],
		"children":[3,
		4]
	},
	{
		"name":"Bundle_4_04143-Oak_Edging",
		"mesh":0
	},
	{
		"name":"Bundle_4_04143-Oak",
		"mesh":1
	}],
	"meshes":[{
		"name":"Bundle_4_04143-Oak_Edging",
		"primitives":[{
			"attributes":{
				"POSITION":1,
				"NORMAL":2,
				"TEXCOORD_0":3
			},
			"indices":0,
			"material":0
		}]
	},
	{
		"name":"Bundle_4_04143-Oak",
		"primitives":[{
			"attributes":{
				"POSITION":5,
				"NORMAL":6,
				"TEXCOORD_0":7
			},
			"indices":4,
			"material":1
		}]
	}],
	"accessors":[{
		"bufferView":0,
		"type":"SCALAR",
		"componentType":5123,
		"max":[43],
		"count":66,
		"byteOffset":0,
		"min":[0]
	},
	{
		"bufferView":1,
		"type":"VEC3",
		"componentType":5126,
		"max":[0.2694777548313141,
		0.5998897552490234,
		-0.20706944167613984],
		"count":44,
		"byteOffset":0,
		"min":[-0.23657196760177613,
		-0.9888479709625244,
		-0.22661082446575166]
	},
	{
		"bufferView":1,
		"type":"VEC3",
		"componentType":5126,
		"max":[0.0,
		1.0,
		0.0],
		"count":44,
		"byteOffset":12,
		"min":[0.0,
		0.0,
		-1.0]
	},
	{
		"bufferView":1,
		"type":"VEC2",
		"componentType":5126,
		"max":[1.185699462890625,
		0.9671478271484375],
		"count":44,
		"byteOffset":24,
		"min":[-0.15320205688476563,
		-0.3699951171875]
	},
	{
		"bufferView":2,
		"type":"SCALAR",
		"componentType":5123,
		"max":[627],
		"count":942,
		"byteOffset":0,
		"min":[0]
	},
	{
		"bufferView":3,
		"type":"VEC3",
		"componentType":5126,
		"max":[0.2694777548313141,
		0.5998897552490234,
		0.17305496335029603],
		"count":628,
		"byteOffset":0,
		"min":[-0.23657196760177613,
		-0.9888479709625244,
		-0.22661082446575166]
	},
	{
		"bufferView":3,
		"type":"VEC3",
		"componentType":5126,
		"max":[1.0,
		1.0,
		1.0],
		"count":628,
		"byteOffset":12,
		"min":[-1.0,
		-1.0,
		-1.0]
	},
	{
		"bufferView":3,
		"type":"VEC2",
		"componentType":5126,
		"max":[1.0,
		1.0],
		"count":628,
		"byteOffset":24,
		"min":[-0.9615325927734375,
		0.000030517578125]
	}],
	"buffers":[{
		"uri":"data:application/octet-stream;base64,",
		"byteLength":1540
	},
	{
		"uri":"data:application/octet-stream;base64,",
		"byteLength":21980
	}],
	"images":[{
		"uri":"data:image/png;base64,"
	},
	{
		"uri":"data:image/png;base64,"
	}],
	"samplers":[{
		"magFilter":9729,
		"minFilter":9729,
		"wrapS":10497,
		"wrapT":10497
	},
	{
		"magFilter":9729,
		"minFilter":9729,
		"wrapS":10497,
		"wrapT":10497
	}],
	"textures":[{
		"sampler":0,
		"source":0
	},
	{
		"sampler":1,
		"source":1
	}],
	"materials":[{
		"pbrMetallicRoughness":{
			"baseColorTexture":{
				"index":0
			},
			"baseColorFactor":[1.0,
			1.0,
			1.0,
			1.0],
			"metallicFactor":0.0,
			"roughnessFactor":0.5
		},
		"emissiveFactor":[0.0,
		0.0,
		0.0],
		"alphaMode":"OPAQUE",
		"doubleSided":true,
		"name":"Oak_Edging"
	},
	{
		"pbrMetallicRoughness":{
			"baseColorTexture":{
				"index":1
			},
			"baseColorFactor":[1.0,
			1.0,
			1.0,
			1.0],
			"metallicFactor":0.0,
			"roughnessFactor":0.5
		},
		"emissiveFactor":[0.0,
		0.0,
		0.0],
		"alphaMode":"OPAQUE",
		"doubleSided":true,
		"name":"Oak"
	}]
}