<svg xmlns="http://www.w3.org/2000/svg" xmlns:xlink="http://www.w3.org/1999/xlink" version="1.1" id="Layer_2" x="0px" y="0px" viewBox="0 0 151.305 70.866" enable-background="new 0 0 151.305 70.866" xml:space="preserve" width="151.305px" height="70.866px">
  <g>
    <path fill-rule="evenodd" clip-rule="evenodd" d="M76.869,65.312l-0.108-0.351l-0.161-0.351L41.572,3.893l-0.217-0.324l-0.27-0.243   L40.789,3.11l-0.351-0.161L40.088,2.84l-0.378-0.026L39.331,2.84l-0.377,0.108L38.63,3.11l-0.324,0.216l-0.242,0.243l-0.216,0.324   L2.82,64.611l-0.161,0.351L2.55,65.312l-0.027,0.378l0.027,0.377l0.108,0.378L2.82,66.77l0.216,0.323l0.243,0.243l0.324,0.216   l0.323,0.163l0.378,0.107l0.378,0.028h70.055l0.377-0.028l0.351-0.107l0.351-0.163l0.298-0.216l0.27-0.243l0.216-0.323l0.161-0.324   l0.108-0.378l0.026-0.377L76.869,65.312z M8.676,63.397l31.033-53.81l31.034,53.81H8.676z"/>
    <path fill-rule="evenodd" clip-rule="evenodd" fill="#EDCA20" d="M39.709,9.587L8.676,63.397h62.068L39.709,9.587z M35.74,24.963   c1.033-1.166,2.517-1.861,3.97-1.861c1.454,0,2.939,0.697,3.971,1.864c0.85,0.96,1.263,2.115,1.136,3.165l-2.654,19.517   c-0.185,1.219-0.925,2.522-2.454,2.522c-1.529,0-2.27-1.302-2.452-2.514l-2.654-19.519C34.475,27.08,34.889,25.923,35.74,24.963z    M39.709,59.268c-1.974,0-3.58-1.603-3.58-3.575c0-1.971,1.605-3.575,3.58-3.575c1.973,0,3.58,1.603,3.58,3.575   C43.289,57.664,41.683,59.268,39.709,59.268z"/>
    <path d="M105.963,30.454c0.006,0.022,0.02,0.042,0.039,0.055c0.014,0.01,0.029,0.014,0.045,0.014c0.008,0,0.014,0,0.021-0.002   l1.832-0.469l-2.393-1.937L105.963,30.454z"/>
    <path d="M105.281,22.121l-1.442,0.437l2.061,1.437l-0.517-1.808C105.373,22.14,105.327,22.111,105.281,22.121z"/>
    <path d="M98.969,25.375c1.846,0,3.342,1.496,3.342,3.342c0,1.846-1.496,3.342-3.342,3.342c-1.846,0-3.342-1.496-3.342-3.342   C95.627,26.871,97.123,25.375,98.969,25.375z"/>
    <path d="M130.52,58.299h-15.366l0.248-2.727l14.18-2.944l-22.272-22.49l0.859,3.876l-0.122,0.02l-0.044-0.179   c-0.09-0.045-0.188-0.062-0.283-0.036c-0.26,0.064-0.398,0.396-0.312,0.738c0.087,0.344,0.368,0.565,0.628,0.5   c0.09-0.023,0.166-0.078,0.223-0.153l-0.045-0.188l0.102-0.042l0.847,3.806c0.01,0.041,0.35-0.035,0.35-0.035l0.062,0.188   c0,0-0.422,0.054-0.412,0.099l0.811,3.674l-0.122,0.033l-0.043-0.183c-0.09-0.045-0.188-0.061-0.284-0.036   c-0.26,0.063-0.399,0.395-0.314,0.737c0.084,0.342,0.364,0.568,0.625,0.504c0.09-0.022,0.166-0.078,0.223-0.153l-0.044-0.187   l0.104-0.065l0.834,3.783c0.006,0.023,0.02,0.043,0.039,0.056c0.014,0.008,0.029,0.012,0.045,0.012c0.008,0,0.016,0,0.021-0.002   l0.24-0.062l0.385,1.81l-4.229,0.89l-0.363-1.656c-0.005-0.023-0.02-0.043-0.039-0.056c-0.019-0.012-0.043-0.016-0.066-0.01   l-0.389,0.102c0.284-0.454,0.316-0.923,0.316-0.923l-3.101-6.661l-0.122-5.438l3.858-1.064c0.931-1.784-0.666-2.608-0.666-2.608   l-3.731,0.529l2.158-3.638l-1.825-1.842l-1.076,0.593c1.361,5.308-3.288,5.61-3.288,5.61c-1.759,1.219-1.867,4.509-1.867,4.509   s0,0,0.097,3.311c0.097,3.31,3.778,2.524,3.778,2.524l2.748,5.767c1.027,0.287,1.703,0.164,2.154-0.11l0.695,3.332l-0.132,0.022   l-0.032-0.182c-0.088-0.051-0.185-0.072-0.281-0.055c-0.264,0.051-0.422,0.371-0.356,0.719c0.066,0.348,0.332,0.588,0.595,0.539   c0.092-0.019,0.171-0.068,0.232-0.141l-0.033-0.188l0.148-0.039l0.764,3.666c0.008,0.039,0.043,0.068,0.084,0.068   c0.002,0,0.004,0,0.007,0l5.341-1.112l0.958,3.193h-12.659c1.639,1.047,3.393,1.93,5.246,2.61h18.701   C127.15,60.231,128.887,59.34,130.52,58.299z"/>
    <path fill-rule="evenodd" clip-rule="evenodd" d="M39.709,52.117c-1.974,0-3.58,1.604-3.58,3.575c0,1.972,1.605,3.575,3.58,3.575   c1.973,0,3.58-1.604,3.58-3.575C43.289,53.72,41.683,52.117,39.709,52.117z"/>
    <path fill-rule="evenodd" clip-rule="evenodd" d="M44.816,28.13c0.127-1.05-0.286-2.205-1.136-3.165   c-1.032-1.167-2.517-1.864-3.971-1.864c-1.453,0-2.936,0.695-3.97,1.861c-0.851,0.961-1.265,2.117-1.137,3.174l2.654,19.519   c0.182,1.212,0.923,2.514,2.452,2.514c1.529,0,2.27-1.303,2.454-2.522L44.816,28.13z"/>
    <polygon points="125.744,15.843 125.959,15.775 125.626,14.365 104.012,18.987 104.281,20.455 105.612,20.171 106.483,24.331    133.298,51.408 125.735,15.844  "/>
    <path fill="#DF281B" d="M115.957,2.79c-17.964,0-32.58,14.615-32.58,32.579c0,17.964,14.616,32.579,32.58,32.579   c17.963,0,32.577-14.615,32.577-32.579C148.534,17.406,133.92,2.79,115.957,2.79z M88.76,35.37c0-6.661,2.41-12.766,6.4-17.5   l38.096,38.468c-4.704,3.889-10.733,6.228-17.299,6.228C100.96,62.566,88.76,50.365,88.76,35.37z M135.801,53.936L97.581,15.341   c4.843-4.447,11.297-7.168,18.376-7.168c14.994,0,27.195,12.201,27.195,27.196C143.152,42.543,140.355,49.071,135.801,53.936z"/>
  </g>
</svg>