{
	"accessors":[{
		"bufferView":0,
		"type":"SCALAR",
		"componentType":5123,
		"count":12396,
		"byteOffset":0,
		"min":[0],
		"max":[7343]
	},
	{
		"bufferView":1,
		"type":"VEC3",
		"componentType":5126,
		"count":7344,
		"byteOffset":0,
		"min":[-0.20499999821186067,
		-0.38023343682289126,
		-0.1950012892484665],
		"max":[0.20499999821186067,
		0.379766583442688,
		0.1950012892484665]
	},
	{
		"bufferView":1,
		"type":"VEC3",
		"componentType":5126,
		"count":7344,
		"byteOffset":12,
		"min":[-1.0,
		-1.0,
		-1.0],
		"max":[1.0,
		1.0,
		1.0]
	},
	{
		"bufferView":1,
		"type":"VEC2",
		"componentType":5126,
		"count":7344,
		"byteOffset":24,
		"min":[0.004145958460867405,
		0.004145958460867405],
		"max":[0.9860796332359314,
		0.9958540201187134]
	}],
	"asset":{
		"version":"2.0",
		"generator":"Maxon Cinema 4D 2025.1.1 (#200000219)"
	},
	"scenes":[{
		"nodes":[0,
		1,
		2]
	}],
	"nodes":[{
		"name":"Window",
		"scale":[1.0,
		1.0,
		1.0],
		"translation":[-0.010007492266595364,
		0.44124966859817507,
		-0.023995844647288324],
		"rotation":[0.0,
		0.0,
		0.0,
		-1.0]
	},
	{
		"name":"Door",
		"scale":[1.0,
		1.0,
		1.0],
		"translation":[-0.20257054269313813,
		1.0127384662628174,
		-0.052213702350854877],
		"rotation":[6.123234262925839e-17,
		0.0,
		0.0,
		-1.0]
	},
	{
		"name":"01414",
		"mesh":0,
		"scale":[1.0,
		1.0,
		1.0],
		"translation":[-7.283062978013556e-16,
		0.38023340702056887,
		0.000001285347025259398],
		"rotation":[0.0,
		0.0,
		0.0,
		-1.0]
	}],
	"meshes":[{
		"name":"01414",
		"primitives":[{
			"attributes":{
				"POSITION":1,
				"NORMAL":2,
				"TEXCOORD_0":3
			},
			"indices":0,
			"material":0
		}]
	}],
	"bufferViews":[{
		"buffer":0,
		"byteOffset":0,
		"byteLength":24792,
		"target":34963
	},
	{
		"buffer":0,
		"byteOffset":24792,
		"byteLength":235008,
		"target":34962,
		"byteStride":32
	}],
	"buffers":[{
		"uri":"data:application/octet-stream;base64,",
		"byteLength":259800
	}],
	"materials":[{
		"pbrMetallicRoughness":{
			"baseColorFactor":[0.8,
			0.8,
			0.8,
			1.0],
			"metallicFactor":0.0,
			"roughnessFactor":0.34
		},
		"name":"Gloss White",
		"emissiveFactor":[0.0,
		0.0,
		0.0],
		"alphaMode":"OPAQUE",
		"doubleSided":true
	}]
}