{
	"accessors":[{
		"bufferView":0,
		"type":"SCALAR",
		"componentType":5123,
		"count":156,
		"byteOffset":0,
		"min":[0],
		"max":[83]
	},
	{
		"bufferView":1,
		"type":"VEC3",
		"componentType":5126,
		"count":84,
		"byteOffset":0,
		"min":[-0.32977789640426638,
		-1.0129432678222657,
		-0.006830771919339895],
		"max":[0.734050989151001,
		1.0955384969711304,
		0.1915781944990158]
	},
	{
		"bufferView":1,
		"type":"VEC3",
		"componentType":5126,
		"count":84,
		"byteOffset":12,
		"min":[-1.0,
		-1.0,
		-1.0],
		"max":[1.0,
		1.0,
		1.0]
	},
	{
		"bufferView":1,
		"type":"VEC2",
		"componentType":5126,
		"count":84,
		"byteOffset":24,
		"min":[0.0,
		0.0],
		"max":[1.0,
		1.0]
	},
	{
		"bufferView":2,
		"type":"SCALAR",
		"componentType":5123,
		"count":576,
		"byteOffset":0,
		"min":[0],
		"max":[255]
	},
	{
		"bufferView":3,
		"type":"VEC3",
		"componentType":5126,
		"count":256,
		"byteOffset":0,
		"min":[-0.2323702573776245,
		-0.07744721323251724,
		-0.0651787742972374],
		"max":[-0.07701154053211212,
		0.06260224431753159,
		0.08875281363725662]
	},
	{
		"bufferView":3,
		"type":"VEC3",
		"componentType":5126,
		"count":256,
		"byteOffset":12,
		"min":[-1.0,
		-1.0,
		-1.0],
		"max":[1.0,
		1.0,
		1.0]
	},
	{
		"bufferView":3,
		"type":"VEC2",
		"componentType":5126,
		"count":256,
		"byteOffset":24,
		"min":[0.0,
		0.0],
		"max":[1.0,
		1.0]
	}],
	"asset":{
		"version":"2.0",
		"generator":"Maxon Cinema 4D 2025.1.1 (#200000219)"
	},
	"scenes":[{
		"nodes":[0,
		1]
	}],
	"nodes":[{
		"name":"Window",
		"scale":[1.0,
		1.0,
		1.0],
		"translation":[-0.010007492266595364,
		0.44124966859817507,
		-0.023995844647288324],
		"rotation":[0.0,
		0.0,
		0.0,
		-1.0]
	},
	{
		"name":"Door",
		"scale":[1.0,
		1.0,
		1.0],
		"translation":[-0.20257054269313813,
		1.0127384662628174,
		-0.052213702350854877],
		"rotation":[6.123234262925839e-17,
		0.0,
		0.0,
		-1.0],
		"children":[2,
		3]
	},
	{
		"name":"Door-Gloss White",
		"mesh":0
	},
	{
		"name":"Door-Metal",
		"mesh":1
	}],
	"meshes":[{
		"name":"Door-Gloss White",
		"primitives":[{
			"attributes":{
				"POSITION":1,
				"NORMAL":2,
				"TEXCOORD_0":3
			},
			"indices":0,
			"material":0
		}]
	},
	{
		"name":"Door-Metal",
		"primitives":[{
			"attributes":{
				"POSITION":5,
				"NORMAL":6,
				"TEXCOORD_0":7
			},
			"indices":4,
			"material":1
		}]
	}],
	"bufferViews":[{
		"buffer":0,
		"byteOffset":0,
		"byteLength":312,
		"target":34963
	},
	{
		"buffer":0,
		"byteOffset":312,
		"byteLength":2688,
		"target":34962,
		"byteStride":32
	},
	{
		"buffer":1,
		"byteOffset":0,
		"byteLength":1152,
		"target":34963
	},
	{
		"buffer":1,
		"byteOffset":1152,
		"byteLength":8192,
		"target":34962,
		"byteStride":32
	}],
	"buffers":[{
		"uri":"data:application/octet-stream;base64,",
		"byteLength":3000
	},
	{
		"uri":"data:application/octet-stream;base64,",
		"byteLength":9344
	}],
	"materials":[{
		"pbrMetallicRoughness":{
			"baseColorFactor":[0.8,
			0.8,
			0.8,
			1.0],
			"metallicFactor":0.0,
			"roughnessFactor":0.34
		},
		"name":"Gloss White",
		"emissiveFactor":[0.0,
		0.0,
		0.0],
		"alphaMode":"OPAQUE",
		"doubleSided":true
	},
	{
		"pbrMetallicRoughness":{
			"baseColorFactor":[0.6900000000000001,
			0.6900000000000001,
			0.6900000000000001,
			1.0],
			"metallicFactor":0.0,
			"roughnessFactor":0.67
		},
		"name":"Metal",
		"emissiveFactor":[0.0,
		0.0,
		0.0],
		"alphaMode":"OPAQUE",
		"doubleSided":true
	}]
}