{
	"accessors":[{
		"bufferView":0,
		"type":"SCALAR",
		"componentType":5123,
		"count":12,
		"byteOffset":0,
		"min":[0],
		"max":[7]
	},
	{
		"bufferView":1,
		"type":"VEC3",
		"componentType":5126,
		"count":8,
		"byteOffset":0,
		"min":[-0.7818353176116943,
		-0.40372157096862795,
		0.013134471140801907],
		"max":[0.7818353176116943,
		1.2525182962417603,
		0.013134471140801907]
	},
	{
		"bufferView":1,
		"type":"VEC3",
		"componentType":5126,
		"count":8,
		"byteOffset":12,
		"min":[0.0,
		0.0,
		-1.0],
		"max":[0.0,
		0.0,
		-1.0]
	},
	{
		"bufferView":1,
		"type":"VEC2",
		"componentType":5126,
		"count":8,
		"byteOffset":24,
		"min":[0.0,
		0.0],
		"max":[1.0,
		1.0]
	},
	{
		"bufferView":2,
		"type":"SCALAR",
		"componentType":5123,
		"count":1764,
		"byteOffset":0,
		"min":[0],
		"max":[485]
	},
	{
		"bufferView":3,
		"type":"VEC3",
		"componentType":5126,
		"count":486,
		"byteOffset":0,
		"min":[-0.876951277256012,
		-0.4405370354652405,
		-0.042250990867614749],
		"max":[0.896584153175354,
		1.3592979907989503,
		0.020778611302375795]
	},
	{
		"bufferView":3,
		"type":"VEC3",
		"componentType":5126,
		"count":486,
		"byteOffset":12,
		"min":[-1.0,
		-1.0,
		-1.0],
		"max":[1.0,
		1.0,
		1.0]
	},
	{
		"bufferView":3,
		"type":"VEC2",
		"componentType":5126,
		"count":486,
		"byteOffset":24,
		"min":[0.0,
		0.0],
		"max":[1.0,
		1.0]
	}],
	"asset":{
		"version":"2.0",
		"generator":"Maxon Cinema 4D 2025.1.1 (#200000219)"
	},
	"scenes":[{
		"nodes":[0]
	}],
	"nodes":[{
		"name":"Window",
		"scale":[1.0,
		1.0,
		1.0],
		"translation":[-0.010007492266595364,
		0.44124966859817507,
		-0.023995844647288324],
		"rotation":[0.0,
		0.0,
		0.0,
		-1.0],
		"children":[1,
		2]
	},
	{
		"name":"Window-Glass",
		"mesh":0
	},
	{
		"name":"Window-Gloss White",
		"mesh":1
	}],
	"meshes":[{
		"name":"Window-Glass",
		"primitives":[{
			"attributes":{
				"POSITION":1,
				"NORMAL":2,
				"TEXCOORD_0":3
			},
			"indices":0,
			"material":0
		}]
	},
	{
		"name":"Window-Gloss White",
		"primitives":[{
			"attributes":{
				"POSITION":5,
				"NORMAL":6,
				"TEXCOORD_0":7
			},
			"indices":4,
			"material":1
		}]
	}],
	"bufferViews":[{
		"buffer":0,
		"byteOffset":0,
		"byteLength":24,
		"target":34963
	},
	{
		"buffer":0,
		"byteOffset":24,
		"byteLength":256,
		"target":34962,
		"byteStride":32
	},
	{
		"buffer":1,
		"byteOffset":0,
		"byteLength":3528,
		"target":34963
	},
	{
		"buffer":1,
		"byteOffset":3528,
		"byteLength":15552,
		"target":34962,
		"byteStride":32
	}],
	"buffers":[{
		"uri":"data:application/octet-stream;base64,",
		"byteLength":280
	},
	{
		"uri":"data:application/octet-stream;base64,",
		"byteLength":19080
	}],
	"materials":[{
		"pbrMetallicRoughness":{
			"baseColorFactor":[0.8,
			0.8,
			0.8,
			0.0],
			"metallicFactor":0.0,
			"roughnessFactor":0.5
		},
		"name":"Glass",
		"emissiveFactor":[0.0,
		0.0,
		0.0],
		"alphaMode":"BLEND",
		"doubleSided":true
	},
	{
		"pbrMetallicRoughness":{
			"baseColorFactor":[0.8,
			0.8,
			0.8,
			1.0],
			"metallicFactor":0.0,
			"roughnessFactor":0.34
		},
		"name":"Gloss White",
		"emissiveFactor":[0.0,
		0.0,
		0.0],
		"alphaMode":"OPAQUE",
		"doubleSided":true
	}]
}